<svg version="1.1" xmlns="http://www.w3.org/2000/svg" xmlns:xlink="http://www.w3.org/1999/xlink" width="548.2353515625" height="497"><defs/><g><text fill="#eeeeee" stroke="none" font-family="Arial" font-size="24px" font-style="normal" font-weight="normal" text-decoration="none" x="0" y="0">UNREGISTERED</text><text fill="#eeeeee" stroke="none" font-family="Arial" font-size="24px" font-style="normal" font-weight="normal" text-decoration="none" x="0" y="30">UNREGISTERED</text><text fill="#eeeeee" stroke="none" font-family="Arial" font-size="24px" font-style="normal" font-weight="normal" text-decoration="none" x="0" y="60">UNREGISTERED</text><text fill="#eeeeee" stroke="none" font-family="Arial" font-size="24px" font-style="normal" font-weight="normal" text-decoration="none" x="0" y="90">UNREGISTERED</text><text fill="#eeeeee" stroke="none" font-family="Arial" font-size="24px" font-style="normal" font-weight="normal" text-decoration="none" x="0" y="120">UNREGISTERED</text><text fill="#eeeeee" stroke="none" font-family="Arial" font-size="24px" font-style="normal" font-weight="normal" text-decoration="none" x="0" y="150">UNREGISTERED</text><text fill="#eeeeee" stroke="none" font-family="Arial" font-size="24px" font-style="normal" font-weight="normal" text-decoration="none" x="0" y="180">UNREGISTERED</text><text fill="#eeeeee" stroke="none" font-family="Arial" font-size="24px" font-style="normal" font-weight="normal" text-decoration="none" x="0" y="210">UNREGISTERED</text><text fill="#eeeeee" stroke="none" font-family="Arial" font-size="24px" font-style="normal" font-weight="normal" text-decoration="none" x="0" y="240">UNREGISTERED</text><text fill="#eeeeee" stroke="none" font-family="Arial" font-size="24px" font-style="normal" font-weight="normal" text-decoration="none" x="0" y="270">UNREGISTERED</text><text fill="#eeeeee" stroke="none" font-family="Arial" font-size="24px" font-style="normal" font-weight="normal" text-decoration="none" x="0" y="300">UNREGISTERED</text><text fill="#eeeeee" stroke="none" font-family="Arial" font-size="24px" font-style="normal" font-weight="normal" text-decoration="none" x="0" y="330">UNREGISTERED</text><text fill="#eeeeee" stroke="none" font-family="Arial" font-size="24px" font-style="normal" font-weight="normal" text-decoration="none" x="0" y="360">UNREGISTERED</text><text fill="#eeeeee" stroke="none" font-family="Arial" font-size="24px" font-style="normal" font-weight="normal" text-decoration="none" x="0" y="390">UNREGISTERED</text><text fill="#eeeeee" stroke="none" font-family="Arial" font-size="24px" font-style="normal" font-weight="normal" text-decoration="none" x="0" y="420">UNREGISTERED</text><text fill="#eeeeee" stroke="none" font-family="Arial" font-size="24px" font-style="normal" font-weight="normal" text-decoration="none" x="0" y="450">UNREGISTERED</text><text fill="#eeeeee" stroke="none" font-family="Arial" font-size="24px" font-style="normal" font-weight="normal" text-decoration="none" x="0" y="480">UNREGISTERED</text><text fill="#eeeeee" stroke="none" font-family="Arial" font-size="24px" font-style="normal" font-weight="normal" text-decoration="none" x="200" y="0">UNREGISTERED</text><text fill="#eeeeee" stroke="none" font-family="Arial" font-size="24px" font-style="normal" font-weight="normal" text-decoration="none" x="200" y="30">UNREGISTERED</text><text fill="#eeeeee" stroke="none" font-family="Arial" font-size="24px" font-style="normal" font-weight="normal" text-decoration="none" x="200" y="60">UNREGISTERED</text><text fill="#eeeeee" stroke="none" font-family="Arial" font-size="24px" font-style="normal" font-weight="normal" text-decoration="none" x="200" y="90">UNREGISTERED</text><text fill="#eeeeee" stroke="none" font-family="Arial" font-size="24px" font-style="normal" font-weight="normal" text-decoration="none" x="200" y="120">UNREGISTERED</text><text fill="#eeeeee" stroke="none" font-family="Arial" font-size="24px" font-style="normal" font-weight="normal" text-decoration="none" x="200" y="150">UNREGISTERED</text><text fill="#eeeeee" stroke="none" font-family="Arial" font-size="24px" font-style="normal" font-weight="normal" text-decoration="none" x="200" y="180">UNREGISTERED</text><text fill="#eeeeee" stroke="none" font-family="Arial" font-size="24px" font-style="normal" font-weight="normal" text-decoration="none" x="200" y="210">UNREGISTERED</text><text fill="#eeeeee" stroke="none" font-family="Arial" font-size="24px" font-style="normal" font-weight="normal" text-decoration="none" x="200" y="240">UNREGISTERED</text><text fill="#eeeeee" stroke="none" font-family="Arial" font-size="24px" font-style="normal" font-weight="normal" text-decoration="none" x="200" y="270">UNREGISTERED</text><text fill="#eeeeee" stroke="none" font-family="Arial" font-size="24px" font-style="normal" font-weight="normal" text-decoration="none" x="200" y="300">UNREGISTERED</text><text fill="#eeeeee" stroke="none" font-family="Arial" font-size="24px" font-style="normal" font-weight="normal" text-decoration="none" x="200" y="330">UNREGISTERED</text><text fill="#eeeeee" stroke="none" font-family="Arial" font-size="24px" font-style="normal" font-weight="normal" text-decoration="none" x="200" y="360">UNREGISTERED</text><text fill="#eeeeee" stroke="none" font-family="Arial" font-size="24px" font-style="normal" font-weight="normal" text-decoration="none" x="200" y="390">UNREGISTERED</text><text fill="#eeeeee" stroke="none" font-family="Arial" font-size="24px" font-style="normal" font-weight="normal" text-decoration="none" x="200" y="420">UNREGISTERED</text><text fill="#eeeeee" stroke="none" font-family="Arial" font-size="24px" font-style="normal" font-weight="normal" text-decoration="none" x="200" y="450">UNREGISTERED</text><text fill="#eeeeee" stroke="none" font-family="Arial" font-size="24px" font-style="normal" font-weight="normal" text-decoration="none" x="200" y="480">UNREGISTERED</text><text fill="#eeeeee" stroke="none" font-family="Arial" font-size="24px" font-style="normal" font-weight="normal" text-decoration="none" x="400" y="0">UNREGISTERED</text><text fill="#eeeeee" stroke="none" font-family="Arial" font-size="24px" font-style="normal" font-weight="normal" text-decoration="none" x="400" y="30">UNREGISTERED</text><text fill="#eeeeee" stroke="none" font-family="Arial" font-size="24px" font-style="normal" font-weight="normal" text-decoration="none" x="400" y="60">UNREGISTERED</text><text fill="#eeeeee" stroke="none" font-family="Arial" font-size="24px" font-style="normal" font-weight="normal" text-decoration="none" x="400" y="90">UNREGISTERED</text><text fill="#eeeeee" stroke="none" font-family="Arial" font-size="24px" font-style="normal" font-weight="normal" text-decoration="none" x="400" y="120">UNREGISTERED</text><text fill="#eeeeee" stroke="none" font-family="Arial" font-size="24px" font-style="normal" font-weight="normal" text-decoration="none" x="400" y="150">UNREGISTERED</text><text fill="#eeeeee" stroke="none" font-family="Arial" font-size="24px" font-style="normal" font-weight="normal" text-decoration="none" x="400" y="180">UNREGISTERED</text><text fill="#eeeeee" stroke="none" font-family="Arial" font-size="24px" font-style="normal" font-weight="normal" text-decoration="none" x="400" y="210">UNREGISTERED</text><text fill="#eeeeee" stroke="none" font-family="Arial" font-size="24px" font-style="normal" font-weight="normal" text-decoration="none" x="400" y="240">UNREGISTERED</text><text fill="#eeeeee" stroke="none" font-family="Arial" font-size="24px" font-style="normal" font-weight="normal" text-decoration="none" x="400" y="270">UNREGISTERED</text><text fill="#eeeeee" stroke="none" font-family="Arial" font-size="24px" font-style="normal" font-weight="normal" text-decoration="none" x="400" y="300">UNREGISTERED</text><text fill="#eeeeee" stroke="none" font-family="Arial" font-size="24px" font-style="normal" font-weight="normal" text-decoration="none" x="400" y="330">UNREGISTERED</text><text fill="#eeeeee" stroke="none" font-family="Arial" font-size="24px" font-style="normal" font-weight="normal" text-decoration="none" x="400" y="360">UNREGISTERED</text><text fill="#eeeeee" stroke="none" font-family="Arial" font-size="24px" font-style="normal" font-weight="normal" text-decoration="none" x="400" y="390">UNREGISTERED</text><text fill="#eeeeee" stroke="none" font-family="Arial" font-size="24px" font-style="normal" font-weight="normal" text-decoration="none" x="400" y="420">UNREGISTERED</text><text fill="#eeeeee" stroke="none" font-family="Arial" font-size="24px" font-style="normal" font-weight="normal" text-decoration="none" x="400" y="450">UNREGISTERED</text><text fill="#eeeeee" stroke="none" font-family="Arial" font-size="24px" font-style="normal" font-weight="normal" text-decoration="none" x="400" y="480">UNREGISTERED</text><g transform="translate(-118,-270) scale(1,1)"><rect fill="#C0C0C0" stroke="none" x="135" y="447" width="72.2353515625" height="72" opacity="0.2"/></g><g transform="translate(-118,-270) scale(1,1)"><rect fill="#ffffff" stroke="none" x="128" y="440" width="72.2353515625" height="72"/></g><g transform="translate(-118,-270) scale(1,1)"><path fill="none" stroke="#000000" d="M 128 440 L 200.2353515625 440 L 200.2353515625 512 L 128 512 L 128 440 Z Z" stroke-miterlimit="10"/></g><g transform="translate(-118,-270) scale(1,1)"><path fill="none" stroke="#000000" d="M 128 465 L 200.2353515625 465" stroke-miterlimit="10"/></g><g transform="translate(-118,-270) scale(1,1)"><path fill="none" stroke="#000000" d="M 128 503 L 200.2353515625 503" stroke-miterlimit="10"/></g><g transform="translate(-118,-270) scale(1,1)"><g><path fill="none" stroke="none"/><text fill="#000000" stroke="none" font-family="Arial" font-size="13px" font-style="normal" font-weight="bold" text-decoration="none" x="150.39404296875" y="459.5">User</text></g></g><g transform="translate(-118,-270) scale(1,1)"><g><path fill="none" stroke="none"/><text fill="#000000" stroke="none" font-family="Arial" font-size="13px" font-style="normal" font-weight="normal" text-decoration="none" x="133" y="482.5">-ID</text></g></g><g transform="translate(-118,-270) scale(1,1)"><g><path fill="none" stroke="none"/><text fill="#000000" stroke="none" font-family="Arial" font-size="13px" font-style="normal" font-weight="normal" text-decoration="none" x="133" y="497.5">-Name</text></g></g><g transform="translate(-118,-270) scale(1,1)"><rect fill="#C0C0C0" stroke="none" x="591" y="455" width="72.2353515625" height="72" opacity="0.2"/></g><g transform="translate(-118,-270) scale(1,1)"><rect fill="#ffffff" stroke="none" x="584" y="448" width="72.2353515625" height="72"/></g><g transform="translate(-118,-270) scale(1,1)"><path fill="none" stroke="#000000" d="M 584 448 L 656.2353515625 448 L 656.2353515625 520 L 584 520 L 584 448 Z Z" stroke-miterlimit="10"/></g><g transform="translate(-118,-270) scale(1,1)"><path fill="none" stroke="#000000" d="M 584 473 L 656.2353515625 473" stroke-miterlimit="10"/></g><g transform="translate(-118,-270) scale(1,1)"><path fill="none" stroke="#000000" d="M 584 496 L 656.2353515625 496" stroke-miterlimit="10"/></g><g transform="translate(-118,-270) scale(1,1)"><g><path fill="none" stroke="none"/><text fill="#000000" stroke="none" font-family="Arial" font-size="13px" font-style="normal" font-weight="bold" text-decoration="none" x="599.8876953125" y="467.5">Project</text></g></g><g transform="translate(-118,-270) scale(1,1)"><g><path fill="none" stroke="none"/><text fill="#000000" stroke="none" font-family="Arial" font-size="13px" font-style="normal" font-weight="normal" text-decoration="none" x="589" y="490.5">+Name</text></g></g><g transform="translate(-118,-270) scale(1,1)"><rect fill="#C0C0C0" stroke="none" x="375" y="647" width="89.76123046875" height="117" opacity="0.2"/></g><g transform="translate(-118,-270) scale(1,1)"><rect fill="#ffffff" stroke="none" x="368" y="640" width="89.76123046875" height="117"/></g><g transform="translate(-118,-270) scale(1,1)"><path fill="none" stroke="#000000" d="M 368 640 L 457.76123046875 640 L 457.76123046875 757 L 368 757 L 368 640 Z Z" stroke-miterlimit="10"/></g><g transform="translate(-118,-270) scale(1,1)"><path fill="none" stroke="#000000" d="M 368 665 L 457.76123046875 665" stroke-miterlimit="10"/></g><g transform="translate(-118,-270) scale(1,1)"><path fill="none" stroke="#000000" d="M 368 748 L 457.76123046875 748" stroke-miterlimit="10"/></g><g transform="translate(-118,-270) scale(1,1)"><g><path fill="none" stroke="none"/><text fill="#000000" stroke="none" font-family="Arial" font-size="13px" font-style="normal" font-weight="bold" text-decoration="none" x="399.515625" y="659.5">Task</text></g></g><g transform="translate(-118,-270) scale(1,1)"><g><path fill="none" stroke="none"/><text fill="#000000" stroke="none" font-family="Arial" font-size="13px" font-style="normal" font-weight="normal" text-decoration="none" x="373" y="682.5">+Name</text></g></g><g transform="translate(-118,-270) scale(1,1)"><g><path fill="none" stroke="none"/><text fill="#000000" stroke="none" font-family="Arial" font-size="13px" font-style="normal" font-weight="normal" text-decoration="none" x="373" y="697.5">+Description</text></g></g><g transform="translate(-118,-270) scale(1,1)"><g><path fill="none" stroke="none"/><text fill="#000000" stroke="none" font-family="Arial" font-size="13px" font-style="normal" font-weight="normal" text-decoration="none" x="373" y="712.5">+StartTime</text></g></g><g transform="translate(-118,-270) scale(1,1)"><g><path fill="none" stroke="none"/><text fill="#000000" stroke="none" font-family="Arial" font-size="13px" font-style="normal" font-weight="normal" text-decoration="none" x="373" y="727.5">+DueTime</text></g></g><g transform="translate(-118,-270) scale(1,1)"><g><path fill="none" stroke="none"/><text fill="#000000" stroke="none" font-family="Arial" font-size="13px" font-style="normal" font-weight="normal" text-decoration="none" x="373" y="742.5">+IsFinished</text></g></g><g transform="translate(-118,-270) scale(1,1)"><rect fill="#C0C0C0" stroke="none" x="367" y="287" width="90.427734375" height="44" opacity="0.2"/></g><g transform="translate(-118,-270) scale(1,1)"><rect fill="#ffffff" stroke="none" x="360" y="280" width="90.427734375" height="44"/></g><g transform="translate(-118,-270) scale(1,1)"><path fill="none" stroke="#000000" d="M 360 280 L 450.427734375 280 L 450.427734375 324 L 360 324 L 360 280 Z Z" stroke-miterlimit="10"/></g><g transform="translate(-118,-270) scale(1,1)"><path fill="none" stroke="#000000" d="M 360 305 L 450.427734375 305" stroke-miterlimit="10"/></g><g transform="translate(-118,-270) scale(1,1)"><path fill="none" stroke="#000000" d="M 360 315 L 450.427734375 315" stroke-miterlimit="10"/></g><g transform="translate(-118,-270) scale(1,1)"><g><path fill="none" stroke="none"/><text fill="#000000" stroke="none" font-family="Arial" font-size="13px" font-style="normal" font-weight="bold" text-decoration="none" x="369.44482421875" y="299.5">SuperAdmin</text></g></g><g transform="translate(-118,-270) scale(1,1)"><rect fill="#C0C0C0" stroke="none" x="391" y="431" width="52.44970703125" height="44" opacity="0.2"/></g><g transform="translate(-118,-270) scale(1,1)"><rect fill="#ffffff" stroke="none" x="384" y="424" width="52.44970703125" height="44"/></g><g transform="translate(-118,-270) scale(1,1)"><path fill="none" stroke="#000000" d="M 384 424 L 436.44970703125 424 L 436.44970703125 468 L 384 468 L 384 424 Z Z" stroke-miterlimit="10"/></g><g transform="translate(-118,-270) scale(1,1)"><path fill="none" stroke="#000000" d="M 384 449 L 436.44970703125 449" stroke-miterlimit="10"/></g><g transform="translate(-118,-270) scale(1,1)"><path fill="none" stroke="#000000" d="M 384 459 L 436.44970703125 459" stroke-miterlimit="10"/></g><g transform="translate(-118,-270) scale(1,1)"><g><path fill="none" stroke="none"/><text fill="#000000" stroke="none" font-family="Arial" font-size="13px" font-style="normal" font-weight="bold" text-decoration="none" x="391.80078125" y="443.5">Admin</text></g></g><g transform="translate(-118,-270) scale(1,1)"><rect fill="#C0C0C0" stroke="none" x="383" y="543" width="64.43408203125" height="44" opacity="0.2"/></g><g transform="translate(-118,-270) scale(1,1)"><rect fill="#ffffff" stroke="none" x="376" y="536" width="64.43408203125" height="44"/></g><g transform="translate(-118,-270) scale(1,1)"><path fill="none" stroke="#000000" d="M 376 536 L 440.43408203125 536 L 440.43408203125 580 L 376 580 L 376 536 Z Z" stroke-miterlimit="10"/></g><g transform="translate(-118,-270) scale(1,1)"><path fill="none" stroke="#000000" d="M 376 561 L 440.43408203125 561" stroke-miterlimit="10"/></g><g transform="translate(-118,-270) scale(1,1)"><path fill="none" stroke="#000000" d="M 376 571 L 440.43408203125 571" stroke-miterlimit="10"/></g><g transform="translate(-118,-270) scale(1,1)"><g><path fill="none" stroke="none"/><text fill="#000000" stroke="none" font-family="Arial" font-size="13px" font-style="normal" font-weight="bold" text-decoration="none" x="384.37841796875" y="555.5">Member</text></g></g><g transform="translate(-118,-270) scale(1,1)"><path fill="none" stroke="#000000" d="M 373 325 L 201 449" stroke-miterlimit="10"/></g><g transform="translate(-118,-270) scale(1,1)"><path fill="#FFFFFF" stroke="none" d="M 212.56397834820635 430.28438072725845 L 201 449 L 222.4109088093723 443.94302620564997"/></g><g transform="translate(-118,-270) scale(1,1)"><path fill="none" stroke="#000000" d="M 212.56397834820635 430.28438072725845 L 201 449 L 222.4109088093723 443.94302620564997 L 212.56397834820635 430.28438072725845" stroke-miterlimit="10"/></g><g transform="translate(-118,-270) scale(1,1)"><path fill="none" stroke="#000000" d="M 383 449 L 201 471" stroke-miterlimit="10"/></g><g transform="translate(-118,-270) scale(1,1)"><path fill="#FFFFFF" stroke="none" d="M 220.16813186928465 460.2026521477858 L 201 471 L 222.1887939125798 476.91903814231847"/></g><g transform="translate(-118,-270) scale(1,1)"><path fill="none" stroke="#000000" d="M 220.16813186928465 460.2026521477858 L 201 471 L 222.1887939125798 476.91903814231847 L 220.16813186928465 460.2026521477858" stroke-miterlimit="10"/></g><g transform="translate(-118,-270) scale(1,1)"><path fill="none" stroke="#000000" d="M 375 547 L 201 489" stroke-miterlimit="10"/></g><g transform="translate(-118,-270) scale(1,1)"><path fill="#FFFFFF" stroke="none" d="M 222.94465259387812 487.44044155800503 L 201 489 L 217.61998700990554 503.41443830992284"/></g><g transform="translate(-118,-270) scale(1,1)"><path fill="none" stroke="#000000" d="M 222.94465259387812 487.44044155800503 L 201 489 L 217.61998700990554 503.41443830992284 L 222.94465259387812 487.44044155800503" stroke-miterlimit="10"/></g><g transform="translate(-118,-270) scale(1,1)"><path fill="none" stroke="#000000" d="M 459 650 L 584 521" stroke-miterlimit="10"/></g><g transform="translate(-118,-270) scale(1,1)"><path fill="#000000" stroke="none" d="M 579.9510264103307 531.2276983173224 L 584 521 L 573.9048684817906 525.3690181540085 L 568.6905309511162 536.7993720584481"/></g><g transform="translate(-118,-270) scale(1,1)"><path fill="none" stroke="#000000" d="M 579.9510264103307 531.2276983173224 L 584 521 L 573.9048684817906 525.3690181540085 L 568.6905309511162 536.7993720584481 L 579.9510264103307 531.2276983173224" stroke-miterlimit="10"/></g><g transform="translate(-118,-270) scale(1,1)"><g><path fill="none" stroke="none"/><text fill="#000000" stroke="none" font-family="Arial" font-size="13px" font-style="normal" font-weight="normal" text-decoration="none" x="472.604736328125" y="649.5">0..n</text></g></g><g transform="translate(-118,-270) scale(1,1)"><g><path fill="none" stroke="none"/><text fill="#000000" stroke="none" font-family="Arial" font-size="13px" font-style="normal" font-weight="normal" text-decoration="none" x="573.69677734375" y="551.5">1</text></g></g><g transform="translate(-118,-270) scale(1,1)"><path fill="none" stroke="#000000" d="M 437 451 L 583 477" stroke-miterlimit="10"/></g><g transform="translate(-118,-270) scale(1,1)"><g><path fill="none" stroke="none"/><text fill="#000000" stroke="none" font-family="Arial" font-size="13px" font-style="normal" font-weight="normal" text-decoration="none" x="484.423095703125" y="455.5">+Manage</text></g></g><g transform="translate(-118,-270) scale(1,1)"><g><path fill="none" stroke="none"/><text fill="#000000" stroke="none" font-family="Arial" font-size="13px" font-style="normal" font-weight="normal" text-decoration="none" x="445.604736328125" y="473.5">0..n</text></g></g><g transform="translate(-118,-270) scale(1,1)"><g><path fill="none" stroke="none"/><text fill="#000000" stroke="none" font-family="Arial" font-size="13px" font-style="normal" font-weight="normal" text-decoration="none" x="548.604736328125" y="491.5">0..n</text></g></g><g transform="translate(-118,-270) scale(1,1)"><path fill="none" stroke="#000000" d="M 583 453 L 432 325" stroke-miterlimit="10"/></g><g transform="translate(-118,-270) scale(1,1)"><g><path fill="none" stroke="none"/><text fill="#000000" stroke="none" font-family="Arial" font-size="13px" font-style="normal" font-weight="normal" text-decoration="none" x="479.5947265625" y="406.5">+Own</text></g></g><g transform="translate(-118,-270) scale(1,1)"><g><path fill="none" stroke="none"/><text fill="#000000" stroke="none" font-family="Arial" font-size="13px" font-style="normal" font-weight="normal" text-decoration="none" x="570.69677734375" y="435.5">1</text></g></g><g transform="translate(-118,-270) scale(1,1)"><g><path fill="none" stroke="none"/><text fill="#000000" stroke="none" font-family="Arial" font-size="13px" font-style="normal" font-weight="normal" text-decoration="none" x="452.69677734375" y="335.5">1</text></g></g><g transform="translate(-118,-270) scale(1,1)"><path fill="none" stroke="#000000" d="M 367 658 L 201 509" stroke-miterlimit="10"/></g><g transform="translate(-118,-270) scale(1,1)"><g><path fill="none" stroke="none"/><text fill="#000000" stroke="none" font-family="Arial" font-size="13px" font-style="normal" font-weight="normal" text-decoration="none" x="243.115234375" y="600.5">+Assigned</text></g></g><g transform="translate(-118,-270) scale(1,1)"><g><path fill="none" stroke="none"/><text fill="#000000" stroke="none" font-family="Arial" font-size="13px" font-style="normal" font-weight="normal" text-decoration="none" x="348.604736328125" y="640.5">0..n</text></g></g><g transform="translate(-118,-270) scale(1,1)"><g><path fill="none" stroke="none"/><text fill="#000000" stroke="none" font-family="Arial" font-size="13px" font-style="normal" font-weight="normal" text-decoration="none" x="221.69677734375" y="520.5">1</text></g></g><g transform="translate(-118,-270) scale(1,1)"><path fill="none" stroke="#000000" d="M 441 546 L 583 497" stroke-miterlimit="10"/></g><g transform="translate(-118,-270) scale(1,1)"><g><path fill="none" stroke="none"/><text fill="#000000" stroke="none" font-family="Arial" font-size="13px" font-style="normal" font-weight="normal" text-decoration="none" x="472.861083984375" y="512.5">+Participate</text></g></g><g transform="translate(-118,-270) scale(1,1)"><g><path fill="none" stroke="none"/><text fill="#000000" stroke="none" font-family="Arial" font-size="13px" font-style="normal" font-weight="normal" text-decoration="none" x="454.604736328125" y="556.5">0..n</text></g></g><g transform="translate(-118,-270) scale(1,1)"><g><path fill="none" stroke="none"/><text fill="#000000" stroke="none" font-family="Arial" font-size="13px" font-style="normal" font-weight="normal" text-decoration="none" x="555.604736328125" y="521.5">0..n</text></g></g></g></svg>