<svg version="1.1" xmlns="http://www.w3.org/2000/svg" xmlns:xlink="http://www.w3.org/1999/xlink" width="660" height="668"><defs/><g><text fill="#eeeeee" stroke="none" font-family="Arial" font-size="24px" font-style="normal" font-weight="normal" text-decoration="none" x="0" y="0">UNREGISTERED</text><text fill="#eeeeee" stroke="none" font-family="Arial" font-size="24px" font-style="normal" font-weight="normal" text-decoration="none" x="0" y="30">UNREGISTERED</text><text fill="#eeeeee" stroke="none" font-family="Arial" font-size="24px" font-style="normal" font-weight="normal" text-decoration="none" x="0" y="60">UNREGISTERED</text><text fill="#eeeeee" stroke="none" font-family="Arial" font-size="24px" font-style="normal" font-weight="normal" text-decoration="none" x="0" y="90">UNREGISTERED</text><text fill="#eeeeee" stroke="none" font-family="Arial" font-size="24px" font-style="normal" font-weight="normal" text-decoration="none" x="0" y="120">UNREGISTERED</text><text fill="#eeeeee" stroke="none" font-family="Arial" font-size="24px" font-style="normal" font-weight="normal" text-decoration="none" x="0" y="150">UNREGISTERED</text><text fill="#eeeeee" stroke="none" font-family="Arial" font-size="24px" font-style="normal" font-weight="normal" text-decoration="none" x="0" y="180">UNREGISTERED</text><text fill="#eeeeee" stroke="none" font-family="Arial" font-size="24px" font-style="normal" font-weight="normal" text-decoration="none" x="0" y="210">UNREGISTERED</text><text fill="#eeeeee" stroke="none" font-family="Arial" font-size="24px" font-style="normal" font-weight="normal" text-decoration="none" x="0" y="240">UNREGISTERED</text><text fill="#eeeeee" stroke="none" font-family="Arial" font-size="24px" font-style="normal" font-weight="normal" text-decoration="none" x="0" y="270">UNREGISTERED</text><text fill="#eeeeee" stroke="none" font-family="Arial" font-size="24px" font-style="normal" font-weight="normal" text-decoration="none" x="0" y="300">UNREGISTERED</text><text fill="#eeeeee" stroke="none" font-family="Arial" font-size="24px" font-style="normal" font-weight="normal" text-decoration="none" x="0" y="330">UNREGISTERED</text><text fill="#eeeeee" stroke="none" font-family="Arial" font-size="24px" font-style="normal" font-weight="normal" text-decoration="none" x="0" y="360">UNREGISTERED</text><text fill="#eeeeee" stroke="none" font-family="Arial" font-size="24px" font-style="normal" font-weight="normal" text-decoration="none" x="0" y="390">UNREGISTERED</text><text fill="#eeeeee" stroke="none" font-family="Arial" font-size="24px" font-style="normal" font-weight="normal" text-decoration="none" x="0" y="420">UNREGISTERED</text><text fill="#eeeeee" stroke="none" font-family="Arial" font-size="24px" font-style="normal" font-weight="normal" text-decoration="none" x="0" y="450">UNREGISTERED</text><text fill="#eeeeee" stroke="none" font-family="Arial" font-size="24px" font-style="normal" font-weight="normal" text-decoration="none" x="0" y="480">UNREGISTERED</text><text fill="#eeeeee" stroke="none" font-family="Arial" font-size="24px" font-style="normal" font-weight="normal" text-decoration="none" x="0" y="510">UNREGISTERED</text><text fill="#eeeeee" stroke="none" font-family="Arial" font-size="24px" font-style="normal" font-weight="normal" text-decoration="none" x="0" y="540">UNREGISTERED</text><text fill="#eeeeee" stroke="none" font-family="Arial" font-size="24px" font-style="normal" font-weight="normal" text-decoration="none" x="0" y="570">UNREGISTERED</text><text fill="#eeeeee" stroke="none" font-family="Arial" font-size="24px" font-style="normal" font-weight="normal" text-decoration="none" x="0" y="600">UNREGISTERED</text><text fill="#eeeeee" stroke="none" font-family="Arial" font-size="24px" font-style="normal" font-weight="normal" text-decoration="none" x="0" y="630">UNREGISTERED</text><text fill="#eeeeee" stroke="none" font-family="Arial" font-size="24px" font-style="normal" font-weight="normal" text-decoration="none" x="0" y="660">UNREGISTERED</text><text fill="#eeeeee" stroke="none" font-family="Arial" font-size="24px" font-style="normal" font-weight="normal" text-decoration="none" x="200" y="0">UNREGISTERED</text><text fill="#eeeeee" stroke="none" font-family="Arial" font-size="24px" font-style="normal" font-weight="normal" text-decoration="none" x="200" y="30">UNREGISTERED</text><text fill="#eeeeee" stroke="none" font-family="Arial" font-size="24px" font-style="normal" font-weight="normal" text-decoration="none" x="200" y="60">UNREGISTERED</text><text fill="#eeeeee" stroke="none" font-family="Arial" font-size="24px" font-style="normal" font-weight="normal" text-decoration="none" x="200" y="90">UNREGISTERED</text><text fill="#eeeeee" stroke="none" font-family="Arial" font-size="24px" font-style="normal" font-weight="normal" text-decoration="none" x="200" y="120">UNREGISTERED</text><text fill="#eeeeee" stroke="none" font-family="Arial" font-size="24px" font-style="normal" font-weight="normal" text-decoration="none" x="200" y="150">UNREGISTERED</text><text fill="#eeeeee" stroke="none" font-family="Arial" font-size="24px" font-style="normal" font-weight="normal" text-decoration="none" x="200" y="180">UNREGISTERED</text><text fill="#eeeeee" stroke="none" font-family="Arial" font-size="24px" font-style="normal" font-weight="normal" text-decoration="none" x="200" y="210">UNREGISTERED</text><text fill="#eeeeee" stroke="none" font-family="Arial" font-size="24px" font-style="normal" font-weight="normal" text-decoration="none" x="200" y="240">UNREGISTERED</text><text fill="#eeeeee" stroke="none" font-family="Arial" font-size="24px" font-style="normal" font-weight="normal" text-decoration="none" x="200" y="270">UNREGISTERED</text><text fill="#eeeeee" stroke="none" font-family="Arial" font-size="24px" font-style="normal" font-weight="normal" text-decoration="none" x="200" y="300">UNREGISTERED</text><text fill="#eeeeee" stroke="none" font-family="Arial" font-size="24px" font-style="normal" font-weight="normal" text-decoration="none" x="200" y="330">UNREGISTERED</text><text fill="#eeeeee" stroke="none" font-family="Arial" font-size="24px" font-style="normal" font-weight="normal" text-decoration="none" x="200" y="360">UNREGISTERED</text><text fill="#eeeeee" stroke="none" font-family="Arial" font-size="24px" font-style="normal" font-weight="normal" text-decoration="none" x="200" y="390">UNREGISTERED</text><text fill="#eeeeee" stroke="none" font-family="Arial" font-size="24px" font-style="normal" font-weight="normal" text-decoration="none" x="200" y="420">UNREGISTERED</text><text fill="#eeeeee" stroke="none" font-family="Arial" font-size="24px" font-style="normal" font-weight="normal" text-decoration="none" x="200" y="450">UNREGISTERED</text><text fill="#eeeeee" stroke="none" font-family="Arial" font-size="24px" font-style="normal" font-weight="normal" text-decoration="none" x="200" y="480">UNREGISTERED</text><text fill="#eeeeee" stroke="none" font-family="Arial" font-size="24px" font-style="normal" font-weight="normal" text-decoration="none" x="200" y="510">UNREGISTERED</text><text fill="#eeeeee" stroke="none" font-family="Arial" font-size="24px" font-style="normal" font-weight="normal" text-decoration="none" x="200" y="540">UNREGISTERED</text><text fill="#eeeeee" stroke="none" font-family="Arial" font-size="24px" font-style="normal" font-weight="normal" text-decoration="none" x="200" y="570">UNREGISTERED</text><text fill="#eeeeee" stroke="none" font-family="Arial" font-size="24px" font-style="normal" font-weight="normal" text-decoration="none" x="200" y="600">UNREGISTERED</text><text fill="#eeeeee" stroke="none" font-family="Arial" font-size="24px" font-style="normal" font-weight="normal" text-decoration="none" x="200" y="630">UNREGISTERED</text><text fill="#eeeeee" stroke="none" font-family="Arial" font-size="24px" font-style="normal" font-weight="normal" text-decoration="none" x="200" y="660">UNREGISTERED</text><text fill="#eeeeee" stroke="none" font-family="Arial" font-size="24px" font-style="normal" font-weight="normal" text-decoration="none" x="400" y="0">UNREGISTERED</text><text fill="#eeeeee" stroke="none" font-family="Arial" font-size="24px" font-style="normal" font-weight="normal" text-decoration="none" x="400" y="30">UNREGISTERED</text><text fill="#eeeeee" stroke="none" font-family="Arial" font-size="24px" font-style="normal" font-weight="normal" text-decoration="none" x="400" y="60">UNREGISTERED</text><text fill="#eeeeee" stroke="none" font-family="Arial" font-size="24px" font-style="normal" font-weight="normal" text-decoration="none" x="400" y="90">UNREGISTERED</text><text fill="#eeeeee" stroke="none" font-family="Arial" font-size="24px" font-style="normal" font-weight="normal" text-decoration="none" x="400" y="120">UNREGISTERED</text><text fill="#eeeeee" stroke="none" font-family="Arial" font-size="24px" font-style="normal" font-weight="normal" text-decoration="none" x="400" y="150">UNREGISTERED</text><text fill="#eeeeee" stroke="none" font-family="Arial" font-size="24px" font-style="normal" font-weight="normal" text-decoration="none" x="400" y="180">UNREGISTERED</text><text fill="#eeeeee" stroke="none" font-family="Arial" font-size="24px" font-style="normal" font-weight="normal" text-decoration="none" x="400" y="210">UNREGISTERED</text><text fill="#eeeeee" stroke="none" font-family="Arial" font-size="24px" font-style="normal" font-weight="normal" text-decoration="none" x="400" y="240">UNREGISTERED</text><text fill="#eeeeee" stroke="none" font-family="Arial" font-size="24px" font-style="normal" font-weight="normal" text-decoration="none" x="400" y="270">UNREGISTERED</text><text fill="#eeeeee" stroke="none" font-family="Arial" font-size="24px" font-style="normal" font-weight="normal" text-decoration="none" x="400" y="300">UNREGISTERED</text><text fill="#eeeeee" stroke="none" font-family="Arial" font-size="24px" font-style="normal" font-weight="normal" text-decoration="none" x="400" y="330">UNREGISTERED</text><text fill="#eeeeee" stroke="none" font-family="Arial" font-size="24px" font-style="normal" font-weight="normal" text-decoration="none" x="400" y="360">UNREGISTERED</text><text fill="#eeeeee" stroke="none" font-family="Arial" font-size="24px" font-style="normal" font-weight="normal" text-decoration="none" x="400" y="390">UNREGISTERED</text><text fill="#eeeeee" stroke="none" font-family="Arial" font-size="24px" font-style="normal" font-weight="normal" text-decoration="none" x="400" y="420">UNREGISTERED</text><text fill="#eeeeee" stroke="none" font-family="Arial" font-size="24px" font-style="normal" font-weight="normal" text-decoration="none" x="400" y="450">UNREGISTERED</text><text fill="#eeeeee" stroke="none" font-family="Arial" font-size="24px" font-style="normal" font-weight="normal" text-decoration="none" x="400" y="480">UNREGISTERED</text><text fill="#eeeeee" stroke="none" font-family="Arial" font-size="24px" font-style="normal" font-weight="normal" text-decoration="none" x="400" y="510">UNREGISTERED</text><text fill="#eeeeee" stroke="none" font-family="Arial" font-size="24px" font-style="normal" font-weight="normal" text-decoration="none" x="400" y="540">UNREGISTERED</text><text fill="#eeeeee" stroke="none" font-family="Arial" font-size="24px" font-style="normal" font-weight="normal" text-decoration="none" x="400" y="570">UNREGISTERED</text><text fill="#eeeeee" stroke="none" font-family="Arial" font-size="24px" font-style="normal" font-weight="normal" text-decoration="none" x="400" y="600">UNREGISTERED</text><text fill="#eeeeee" stroke="none" font-family="Arial" font-size="24px" font-style="normal" font-weight="normal" text-decoration="none" x="400" y="630">UNREGISTERED</text><text fill="#eeeeee" stroke="none" font-family="Arial" font-size="24px" font-style="normal" font-weight="normal" text-decoration="none" x="400" y="660">UNREGISTERED</text><text fill="#eeeeee" stroke="none" font-family="Arial" font-size="24px" font-style="normal" font-weight="normal" text-decoration="none" x="600" y="0">UNREGISTERED</text><text fill="#eeeeee" stroke="none" font-family="Arial" font-size="24px" font-style="normal" font-weight="normal" text-decoration="none" x="600" y="30">UNREGISTERED</text><text fill="#eeeeee" stroke="none" font-family="Arial" font-size="24px" font-style="normal" font-weight="normal" text-decoration="none" x="600" y="60">UNREGISTERED</text><text fill="#eeeeee" stroke="none" font-family="Arial" font-size="24px" font-style="normal" font-weight="normal" text-decoration="none" x="600" y="90">UNREGISTERED</text><text fill="#eeeeee" stroke="none" font-family="Arial" font-size="24px" font-style="normal" font-weight="normal" text-decoration="none" x="600" y="120">UNREGISTERED</text><text fill="#eeeeee" stroke="none" font-family="Arial" font-size="24px" font-style="normal" font-weight="normal" text-decoration="none" x="600" y="150">UNREGISTERED</text><text fill="#eeeeee" stroke="none" font-family="Arial" font-size="24px" font-style="normal" font-weight="normal" text-decoration="none" x="600" y="180">UNREGISTERED</text><text fill="#eeeeee" stroke="none" font-family="Arial" font-size="24px" font-style="normal" font-weight="normal" text-decoration="none" x="600" y="210">UNREGISTERED</text><text fill="#eeeeee" stroke="none" font-family="Arial" font-size="24px" font-style="normal" font-weight="normal" text-decoration="none" x="600" y="240">UNREGISTERED</text><text fill="#eeeeee" stroke="none" font-family="Arial" font-size="24px" font-style="normal" font-weight="normal" text-decoration="none" x="600" y="270">UNREGISTERED</text><text fill="#eeeeee" stroke="none" font-family="Arial" font-size="24px" font-style="normal" font-weight="normal" text-decoration="none" x="600" y="300">UNREGISTERED</text><text fill="#eeeeee" stroke="none" font-family="Arial" font-size="24px" font-style="normal" font-weight="normal" text-decoration="none" x="600" y="330">UNREGISTERED</text><text fill="#eeeeee" stroke="none" font-family="Arial" font-size="24px" font-style="normal" font-weight="normal" text-decoration="none" x="600" y="360">UNREGISTERED</text><text fill="#eeeeee" stroke="none" font-family="Arial" font-size="24px" font-style="normal" font-weight="normal" text-decoration="none" x="600" y="390">UNREGISTERED</text><text fill="#eeeeee" stroke="none" font-family="Arial" font-size="24px" font-style="normal" font-weight="normal" text-decoration="none" x="600" y="420">UNREGISTERED</text><text fill="#eeeeee" stroke="none" font-family="Arial" font-size="24px" font-style="normal" font-weight="normal" text-decoration="none" x="600" y="450">UNREGISTERED</text><text fill="#eeeeee" stroke="none" font-family="Arial" font-size="24px" font-style="normal" font-weight="normal" text-decoration="none" x="600" y="480">UNREGISTERED</text><text fill="#eeeeee" stroke="none" font-family="Arial" font-size="24px" font-style="normal" font-weight="normal" text-decoration="none" x="600" y="510">UNREGISTERED</text><text fill="#eeeeee" stroke="none" font-family="Arial" font-size="24px" font-style="normal" font-weight="normal" text-decoration="none" x="600" y="540">UNREGISTERED</text><text fill="#eeeeee" stroke="none" font-family="Arial" font-size="24px" font-style="normal" font-weight="normal" text-decoration="none" x="600" y="570">UNREGISTERED</text><text fill="#eeeeee" stroke="none" font-family="Arial" font-size="24px" font-style="normal" font-weight="normal" text-decoration="none" x="600" y="600">UNREGISTERED</text><text fill="#eeeeee" stroke="none" font-family="Arial" font-size="24px" font-style="normal" font-weight="normal" text-decoration="none" x="600" y="630">UNREGISTERED</text><text fill="#eeeeee" stroke="none" font-family="Arial" font-size="24px" font-style="normal" font-weight="normal" text-decoration="none" x="600" y="660">UNREGISTERED</text><g transform="translate(-110,-150) scale(1,1)"><rect fill="#C0C0C0" stroke="none" x="375" y="167" width="392" height="648" opacity="0.2"/></g><g transform="translate(-110,-150) scale(1,1)"><rect fill="#ffffff" stroke="none" x="368" y="160" width="392" height="648"/></g><g transform="translate(-110,-150) scale(1,1)"><path fill="none" stroke="#000000" d="M 368 160 L 760 160 L 760 808 L 368 808 L 368 160 Z Z" stroke-miterlimit="10"/></g><g transform="translate(-110,-150) scale(1,1)"><g><path fill="none" stroke="none"/><text fill="#000000" stroke="none" font-family="Arial" font-size="13px" font-style="normal" font-weight="bold" text-decoration="none" x="514.5009765625" y="179.5">OurPlanManager</text></g></g><g transform="translate(-110,-150) scale(1,1)"><path fill="#ffffff" stroke="none" d="M 262.52189914772725 233.68 C 262.52189914772725 228.886167936 266.40774147267274 225 271.201171875 225 C 275.99460227732726 225 279.88044460227275 228.886167936 279.88044460227275 233.68 C 279.88044460227275 238.47383206400002 275.99460227732726 242.36 271.201171875 242.36 C 266.40774147267274 242.36 262.52189914772725 238.47383206400002 262.52189914772725 233.68 Z"/></g><g transform="translate(-110,-150) scale(1,1)"><path fill="none" stroke="#000000" d="M 262.52189914772725 233.68 C 262.52189914772725 228.886167936 266.40774147267274 225 271.201171875 225 C 275.99460227732726 225 279.88044460227275 228.886167936 279.88044460227275 233.68 C 279.88044460227275 238.47383206400002 275.99460227732726 242.36 271.201171875 242.36 C 266.40774147267274 242.36 262.52189914772725 238.47383206400002 262.52189914772725 233.68 Z" stroke-miterlimit="10"/></g><g transform="translate(-110,-150) scale(1,1)"><path fill="none" stroke="#000000" d="M 271.201171875 242.36 L 271.201171875 259.64" stroke-miterlimit="10"/></g><g transform="translate(-110,-150) scale(1,1)"><path fill="none" stroke="#000000" d="M 262.01135369318183 248.84 L 280.39099005681817 248.84" stroke-miterlimit="10"/></g><g transform="translate(-110,-150) scale(1,1)"><path fill="none" stroke="#000000" d="M 271.201171875 259.64 L 258.43753551136365 277" stroke-miterlimit="10"/></g><g transform="translate(-110,-150) scale(1,1)"><path fill="none" stroke="#000000" d="M 271.201171875 259.64 L 283.96480823863635 277" stroke-miterlimit="10"/></g><g transform="translate(-110,-150) scale(1,1)"><g><path fill="none" stroke="none"/><text fill="#000000" stroke="none" font-family="Arial" font-size="13px" font-style="normal" font-weight="bold" text-decoration="none" x="213.76123046875" y="297.5">Super Administrator</text></g></g><g transform="translate(-110,-150) scale(1,1)"><path fill="#ffffff" stroke="none" d="M 265.59685031960225 409.68 C 265.59685031960225 404.886167936 269.48269264454774 401 274.276123046875 401 C 279.06955344920226 401 282.95539577414775 404.886167936 282.95539577414775 409.68 C 282.95539577414775 414.473832064 279.06955344920226 418.36 274.276123046875 418.36 C 269.48269264454774 418.36 265.59685031960225 414.473832064 265.59685031960225 409.68 Z"/></g><g transform="translate(-110,-150) scale(1,1)"><path fill="none" stroke="#000000" d="M 265.59685031960225 409.68 C 265.59685031960225 404.886167936 269.48269264454774 401 274.276123046875 401 C 279.06955344920226 401 282.95539577414775 404.886167936 282.95539577414775 409.68 C 282.95539577414775 414.473832064 279.06955344920226 418.36 274.276123046875 418.36 C 269.48269264454774 418.36 265.59685031960225 414.473832064 265.59685031960225 409.68 Z" stroke-miterlimit="10"/></g><g transform="translate(-110,-150) scale(1,1)"><path fill="none" stroke="#000000" d="M 274.276123046875 418.36 L 274.276123046875 435.64" stroke-miterlimit="10"/></g><g transform="translate(-110,-150) scale(1,1)"><path fill="none" stroke="#000000" d="M 265.08630486505683 424.84 L 283.46594122869317 424.84" stroke-miterlimit="10"/></g><g transform="translate(-110,-150) scale(1,1)"><path fill="none" stroke="#000000" d="M 274.276123046875 435.64 L 261.51248668323865 453" stroke-miterlimit="10"/></g><g transform="translate(-110,-150) scale(1,1)"><path fill="none" stroke="#000000" d="M 274.276123046875 435.64 L 287.03975941051135 453" stroke-miterlimit="10"/></g><g transform="translate(-110,-150) scale(1,1)"><g><path fill="none" stroke="none"/><text fill="#000000" stroke="none" font-family="Arial" font-size="13px" font-style="normal" font-weight="bold" text-decoration="none" x="235.987060546875" y="473.5">Administrator</text></g></g><g transform="translate(-110,-150) scale(1,1)"><path fill="#ffffff" stroke="none" d="M 263.53776828835225 561.6800000000001 C 263.53776828835225 556.8861679360001 267.42361061329774 553 272.217041015625 553 C 277.01047141795226 553 280.89631374289775 556.8861679360001 280.89631374289775 561.6800000000001 C 280.89631374289775 566.473832064 277.01047141795226 570.36 272.217041015625 570.36 C 267.42361061329774 570.36 263.53776828835225 566.473832064 263.53776828835225 561.6800000000001 Z"/></g><g transform="translate(-110,-150) scale(1,1)"><path fill="none" stroke="#000000" d="M 263.53776828835225 561.6800000000001 C 263.53776828835225 556.8861679360001 267.42361061329774 553 272.217041015625 553 C 277.01047141795226 553 280.89631374289775 556.8861679360001 280.89631374289775 561.6800000000001 C 280.89631374289775 566.473832064 277.01047141795226 570.36 272.217041015625 570.36 C 267.42361061329774 570.36 263.53776828835225 566.473832064 263.53776828835225 561.6800000000001 Z" stroke-miterlimit="10"/></g><g transform="translate(-110,-150) scale(1,1)"><path fill="none" stroke="#000000" d="M 272.217041015625 570.36 L 272.217041015625 587.64" stroke-miterlimit="10"/></g><g transform="translate(-110,-150) scale(1,1)"><path fill="none" stroke="#000000" d="M 263.02722283380683 576.84 L 281.40685919744317 576.84" stroke-miterlimit="10"/></g><g transform="translate(-110,-150) scale(1,1)"><path fill="none" stroke="#000000" d="M 272.217041015625 587.64 L 259.45340465198865 605" stroke-miterlimit="10"/></g><g transform="translate(-110,-150) scale(1,1)"><path fill="none" stroke="#000000" d="M 272.217041015625 587.64 L 284.98067737926135 605" stroke-miterlimit="10"/></g><g transform="translate(-110,-150) scale(1,1)"><g><path fill="none" stroke="none"/><text fill="#000000" stroke="none" font-family="Arial" font-size="13px" font-style="normal" font-weight="bold" text-decoration="none" x="248.37841796875" y="625.5">Member</text></g></g><g transform="translate(-110,-150) scale(1,1)"><path fill="#C0C0C0" stroke="none" d="M 487 408 C 487 398.6111584 527.5182256 391 577.5 391 C 627.4817744 391 668 398.6111584 668 408 C 668 417.3888416 627.4817744 425 577.5 425 C 527.5182256 425 487 417.3888416 487 408 Z" opacity="0.2"/></g><g transform="translate(-110,-150) scale(1,1)"><path fill="#ffffff" stroke="none" d="M 480 401 C 480 391.6111584 520.5182256 384 570.5 384 C 620.4817744 384 661 391.6111584 661 401 C 661 410.3888416 620.4817744 418 570.5 418 C 520.5182256 418 480 410.3888416 480 401 Z"/></g><g transform="translate(-110,-150) scale(1,1)"><path fill="none" stroke="#000000" d="M 480 401 C 480 391.6111584 520.5182256 384 570.5 384 C 620.4817744 384 661 391.6111584 661 401 C 661 410.3888416 620.4817744 418 570.5 418 C 520.5182256 418 480 410.3888416 480 401 Z" stroke-miterlimit="10"/></g><g transform="translate(-110,-150) scale(1,1)"><g><path fill="none" stroke="none"/><text fill="#000000" stroke="none" font-family="Arial" font-size="13px" font-style="normal" font-weight="bold" text-decoration="none" x="518.115966796875" y="408">Manage Members</text></g></g><g transform="translate(-110,-150) scale(1,1)"><path fill="#ffffff" stroke="none" d="M 264.40935031960225 697.6800000000001 C 264.40935031960225 692.8861679360001 268.29519264454774 689 273.088623046875 689 C 277.88205344920226 689 281.76789577414775 692.8861679360001 281.76789577414775 697.6800000000001 C 281.76789577414775 702.473832064 277.88205344920226 706.36 273.088623046875 706.36 C 268.29519264454774 706.36 264.40935031960225 702.473832064 264.40935031960225 697.6800000000001 Z"/></g><g transform="translate(-110,-150) scale(1,1)"><path fill="none" stroke="#000000" d="M 264.40935031960225 697.6800000000001 C 264.40935031960225 692.8861679360001 268.29519264454774 689 273.088623046875 689 C 277.88205344920226 689 281.76789577414775 692.8861679360001 281.76789577414775 697.6800000000001 C 281.76789577414775 702.473832064 277.88205344920226 706.36 273.088623046875 706.36 C 268.29519264454774 706.36 264.40935031960225 702.473832064 264.40935031960225 697.6800000000001 Z" stroke-miterlimit="10"/></g><g transform="translate(-110,-150) scale(1,1)"><path fill="none" stroke="#000000" d="M 273.088623046875 706.36 L 273.088623046875 723.64" stroke-miterlimit="10"/></g><g transform="translate(-110,-150) scale(1,1)"><path fill="none" stroke="#000000" d="M 263.89880486505683 712.84 L 282.27844122869317 712.84" stroke-miterlimit="10"/></g><g transform="translate(-110,-150) scale(1,1)"><path fill="none" stroke="#000000" d="M 273.088623046875 723.64 L 260.32498668323865 741" stroke-miterlimit="10"/></g><g transform="translate(-110,-150) scale(1,1)"><path fill="none" stroke="#000000" d="M 273.088623046875 723.64 L 285.85225941051135 741" stroke-miterlimit="10"/></g><g transform="translate(-110,-150) scale(1,1)"><g><path fill="none" stroke="none"/><text fill="#000000" stroke="none" font-family="Arial" font-size="13px" font-style="normal" font-weight="bold" text-decoration="none" x="259.364990234375" y="761.5">User</text></g></g><g transform="translate(-110,-150) scale(1,1)"><path fill="#C0C0C0" stroke="none" d="M 479 296 C 479 286.6111584 520.6375136 279 572 279 C 623.3624864 279 665 286.6111584 665 296 C 665 305.3888416 623.3624864 313 572 313 C 520.6375136 313 479 305.3888416 479 296 Z" opacity="0.2"/></g><g transform="translate(-110,-150) scale(1,1)"><path fill="#ffffff" stroke="none" d="M 472 289 C 472 279.6111584 513.6375136 272 565 272 C 616.3624864 272 658 279.6111584 658 289 C 658 298.3888416 616.3624864 306 565 306 C 513.6375136 306 472 298.3888416 472 289 Z"/></g><g transform="translate(-110,-150) scale(1,1)"><path fill="none" stroke="#000000" d="M 472 289 C 472 279.6111584 513.6375136 272 565 272 C 616.3624864 272 658 279.6111584 658 289 C 658 298.3888416 616.3624864 306 565 306 C 513.6375136 306 472 298.3888416 472 289 Z" stroke-miterlimit="10"/></g><g transform="translate(-110,-150) scale(1,1)"><g><path fill="none" stroke="none"/><text fill="#000000" stroke="none" font-family="Arial" font-size="13px" font-style="normal" font-weight="bold" text-decoration="none" x="511.898681640625" y="296">Set Administrators</text></g></g><g transform="translate(-110,-150) scale(1,1)"><path fill="#C0C0C0" stroke="none" d="M 495 240 C 495 230.6111584 530.3695008 223 574 223 C 617.6304992 223 653 230.6111584 653 240 C 653 249.3888416 617.6304992 257 574 257 C 530.3695008 257 495 249.3888416 495 240 Z" opacity="0.2"/></g><g transform="translate(-110,-150) scale(1,1)"><path fill="#ffffff" stroke="none" d="M 488 233 C 488 223.6111584 523.3695008 216 567 216 C 610.6304992 216 646 223.6111584 646 233 C 646 242.3888416 610.6304992 250 567 250 C 523.3695008 250 488 242.3888416 488 233 Z"/></g><g transform="translate(-110,-150) scale(1,1)"><path fill="none" stroke="#000000" d="M 488 233 C 488 223.6111584 523.3695008 216 567 216 C 610.6304992 216 646 223.6111584 646 233 C 646 242.3888416 610.6304992 250 567 250 C 523.3695008 250 488 242.3888416 488 233 Z" stroke-miterlimit="10"/></g><g transform="translate(-110,-150) scale(1,1)"><g><path fill="none" stroke="none"/><text fill="#000000" stroke="none" font-family="Arial" font-size="13px" font-style="normal" font-weight="bold" text-decoration="none" x="521.474609375" y="240">Manage Project</text></g></g><g transform="translate(-110,-150) scale(1,1)"><path fill="#C0C0C0" stroke="none" d="M 503 472 C 503 462.6111584 535.2354944 455 575 455 C 614.7645056 455 647 462.6111584 647 472 C 647 481.3888416 614.7645056 489 575 489 C 535.2354944 489 503 481.3888416 503 472 Z" opacity="0.2"/></g><g transform="translate(-110,-150) scale(1,1)"><path fill="#ffffff" stroke="none" d="M 496 465 C 496 455.6111584 528.2354944 448 568 448 C 607.7645056 448 640 455.6111584 640 465 C 640 474.3888416 607.7645056 482 568 482 C 528.2354944 482 496 474.3888416 496 465 Z"/></g><g transform="translate(-110,-150) scale(1,1)"><path fill="none" stroke="#000000" d="M 496 465 C 496 455.6111584 528.2354944 448 568 448 C 607.7645056 448 640 455.6111584 640 465 C 640 474.3888416 607.7645056 482 568 482 C 528.2354944 482 496 474.3888416 496 465 Z" stroke-miterlimit="10"/></g><g transform="translate(-110,-150) scale(1,1)"><g><path fill="none" stroke="none"/><text fill="#000000" stroke="none" font-family="Arial" font-size="13px" font-style="normal" font-weight="bold" text-decoration="none" x="526.089599609375" y="472">Manage Tasks</text></g></g><g transform="translate(-110,-150) scale(1,1)"><path fill="#C0C0C0" stroke="none" d="M 511 600 C 511 590.6111584 538.5344848 583 572.5 583 C 606.4655152 583 634 590.6111584 634 600 C 634 609.3888416 606.4655152 617 572.5 617 C 538.5344848 617 511 609.3888416 511 600 Z" opacity="0.2"/></g><g transform="translate(-110,-150) scale(1,1)"><path fill="#ffffff" stroke="none" d="M 504 593 C 504 583.6111584 531.5344848 576 565.5 576 C 599.4655152 576 627 583.6111584 627 593 C 627 602.3888416 599.4655152 610 565.5 610 C 531.5344848 610 504 602.3888416 504 593 Z"/></g><g transform="translate(-110,-150) scale(1,1)"><path fill="none" stroke="#000000" d="M 504 593 C 504 583.6111584 531.5344848 576 565.5 576 C 599.4655152 576 627 583.6111584 627 593 C 627 602.3888416 599.4655152 610 565.5 610 C 531.5344848 610 504 602.3888416 504 593 Z" stroke-miterlimit="10"/></g><g transform="translate(-110,-150) scale(1,1)"><g><path fill="none" stroke="none"/><text fill="#000000" stroke="none" font-family="Arial" font-size="13px" font-style="normal" font-weight="bold" text-decoration="none" x="529.740478515625" y="600">Finish Tasks</text></g></g><g transform="translate(-110,-150) scale(1,1)"><path fill="#C0C0C0" stroke="none" d="M 511 736 C 511 726.6111584 539.6537728 719 575 719 C 610.3462272 719 639 726.6111584 639 736 C 639 745.3888416 610.3462272 753 575 753 C 539.6537728 753 511 745.3888416 511 736 Z" opacity="0.2"/></g><g transform="translate(-110,-150) scale(1,1)"><path fill="#ffffff" stroke="none" d="M 504 729 C 504 719.6111584 532.6537728 712 568 712 C 603.3462272 712 632 719.6111584 632 729 C 632 738.3888416 603.3462272 746 568 746 C 532.6537728 746 504 738.3888416 504 729 Z"/></g><g transform="translate(-110,-150) scale(1,1)"><path fill="none" stroke="#000000" d="M 504 729 C 504 719.6111584 532.6537728 712 568 712 C 603.3462272 712 632 719.6111584 632 729 C 632 738.3888416 603.3462272 746 568 746 C 532.6537728 746 504 738.3888416 504 729 Z" stroke-miterlimit="10"/></g><g transform="translate(-110,-150) scale(1,1)"><g><path fill="none" stroke="none"/><text fill="#000000" stroke="none" font-family="Arial" font-size="13px" font-style="normal" font-weight="bold" text-decoration="none" x="531.992919921875" y="736">View Project</text></g></g><g transform="translate(-110,-150) scale(1,1)"><path fill="none" stroke="#000000" d="M 343 256 L 487 241" stroke-miterlimit="10"/></g><g transform="translate(-110,-150) scale(1,1)"><path fill="none" stroke="#000000" d="M 343 269 L 471 281" stroke-miterlimit="10"/></g><g transform="translate(-110,-150) scale(1,1)"><path fill="none" stroke="#000000" d="M 326 432 L 479 413" stroke-miterlimit="10"/></g><g transform="translate(-110,-150) scale(1,1)"><path fill="none" stroke="#000000" d="M 326 444 L 495 459" stroke-miterlimit="10"/></g><g transform="translate(-110,-150) scale(1,1)"><path fill="none" stroke="#000000" d="M 343 296 L 531 383" stroke-miterlimit="10"/></g><g transform="translate(-110,-150) scale(1,1)"><path fill="none" stroke="#000000" d="M 331 304 L 542 447" stroke-miterlimit="10"/></g><g transform="translate(-110,-150) scale(1,1)"><path fill="none" stroke="#000000" d="M 308 304 L 549 575" stroke-miterlimit="10"/></g><g transform="translate(-110,-150) scale(1,1)"><path fill="none" stroke="#000000" d="M 326 466 L 531 575" stroke-miterlimit="10"/></g><g transform="translate(-110,-150) scale(1,1)"><path fill="none" stroke="#000000" d="M 305 591 L 503 593" stroke-miterlimit="10"/></g><g transform="translate(-110,-150) scale(1,1)"><path fill="none" stroke="#000000" d="M 299 727 L 503 729" stroke-miterlimit="10"/></g><g transform="translate(-110,-150) scale(1,1)"><path fill="none" stroke="#000000" d="M 200 256 L 120 256 L 120 720 L 248 720" stroke-miterlimit="10"/></g><g transform="translate(-110,-150) scale(1,1)"><path fill="#FFFFFF" stroke="none" d="M 227.6746502847517 728.419035512032 L 248 720 L 227.6746502847517 711.580964487968"/></g><g transform="translate(-110,-150) scale(1,1)"><path fill="none" stroke="#000000" d="M 227.6746502847517 728.419035512032 L 248 720 L 227.6746502847517 711.580964487968 L 227.6746502847517 728.419035512032" stroke-miterlimit="10"/></g><g transform="translate(-110,-150) scale(1,1)"><path fill="none" stroke="#000000" d="M 224 432 L 120 432 L 120 720 L 248 720" stroke-miterlimit="10"/></g><g transform="translate(-110,-150) scale(1,1)"><path fill="#FFFFFF" stroke="none" d="M 227.6746502847517 728.419035512032 L 248 720 L 227.6746502847517 711.580964487968"/></g><g transform="translate(-110,-150) scale(1,1)"><path fill="none" stroke="#000000" d="M 227.6746502847517 728.419035512032 L 248 720 L 227.6746502847517 711.580964487968 L 227.6746502847517 728.419035512032" stroke-miterlimit="10"/></g><g transform="translate(-110,-150) scale(1,1)"><path fill="none" stroke="#000000" d="M 240 584 L 120 584 L 120 720 L 248 720" stroke-miterlimit="10"/></g><g transform="translate(-110,-150) scale(1,1)"><path fill="#FFFFFF" stroke="none" d="M 227.6746502847517 728.419035512032 L 248 720 L 227.6746502847517 711.580964487968"/></g><g transform="translate(-110,-150) scale(1,1)"><path fill="none" stroke="#000000" d="M 227.6746502847517 728.419035512032 L 248 720 L 227.6746502847517 711.580964487968 L 227.6746502847517 728.419035512032" stroke-miterlimit="10"/></g></g></svg>