<svg version="1.1" xmlns="http://www.w3.org/2000/svg" xmlns:xlink="http://www.w3.org/1999/xlink" width="652.2353515625" height="689"><defs/><g><text fill="#eeeeee" stroke="none" font-family="Arial" font-size="24px" font-style="normal" font-weight="normal" text-decoration="none" x="0" y="0">UNREGISTERED</text><text fill="#eeeeee" stroke="none" font-family="Arial" font-size="24px" font-style="normal" font-weight="normal" text-decoration="none" x="0" y="30">UNREGISTERED</text><text fill="#eeeeee" stroke="none" font-family="Arial" font-size="24px" font-style="normal" font-weight="normal" text-decoration="none" x="0" y="60">UNREGISTERED</text><text fill="#eeeeee" stroke="none" font-family="Arial" font-size="24px" font-style="normal" font-weight="normal" text-decoration="none" x="0" y="90">UNREGISTERED</text><text fill="#eeeeee" stroke="none" font-family="Arial" font-size="24px" font-style="normal" font-weight="normal" text-decoration="none" x="0" y="120">UNREGISTERED</text><text fill="#eeeeee" stroke="none" font-family="Arial" font-size="24px" font-style="normal" font-weight="normal" text-decoration="none" x="0" y="150">UNREGISTERED</text><text fill="#eeeeee" stroke="none" font-family="Arial" font-size="24px" font-style="normal" font-weight="normal" text-decoration="none" x="0" y="180">UNREGISTERED</text><text fill="#eeeeee" stroke="none" font-family="Arial" font-size="24px" font-style="normal" font-weight="normal" text-decoration="none" x="0" y="210">UNREGISTERED</text><text fill="#eeeeee" stroke="none" font-family="Arial" font-size="24px" font-style="normal" font-weight="normal" text-decoration="none" x="0" y="240">UNREGISTERED</text><text fill="#eeeeee" stroke="none" font-family="Arial" font-size="24px" font-style="normal" font-weight="normal" text-decoration="none" x="0" y="270">UNREGISTERED</text><text fill="#eeeeee" stroke="none" font-family="Arial" font-size="24px" font-style="normal" font-weight="normal" text-decoration="none" x="0" y="300">UNREGISTERED</text><text fill="#eeeeee" stroke="none" font-family="Arial" font-size="24px" font-style="normal" font-weight="normal" text-decoration="none" x="0" y="330">UNREGISTERED</text><text fill="#eeeeee" stroke="none" font-family="Arial" font-size="24px" font-style="normal" font-weight="normal" text-decoration="none" x="0" y="360">UNREGISTERED</text><text fill="#eeeeee" stroke="none" font-family="Arial" font-size="24px" font-style="normal" font-weight="normal" text-decoration="none" x="0" y="390">UNREGISTERED</text><text fill="#eeeeee" stroke="none" font-family="Arial" font-size="24px" font-style="normal" font-weight="normal" text-decoration="none" x="0" y="420">UNREGISTERED</text><text fill="#eeeeee" stroke="none" font-family="Arial" font-size="24px" font-style="normal" font-weight="normal" text-decoration="none" x="0" y="450">UNREGISTERED</text><text fill="#eeeeee" stroke="none" font-family="Arial" font-size="24px" font-style="normal" font-weight="normal" text-decoration="none" x="0" y="480">UNREGISTERED</text><text fill="#eeeeee" stroke="none" font-family="Arial" font-size="24px" font-style="normal" font-weight="normal" text-decoration="none" x="0" y="510">UNREGISTERED</text><text fill="#eeeeee" stroke="none" font-family="Arial" font-size="24px" font-style="normal" font-weight="normal" text-decoration="none" x="0" y="540">UNREGISTERED</text><text fill="#eeeeee" stroke="none" font-family="Arial" font-size="24px" font-style="normal" font-weight="normal" text-decoration="none" x="0" y="570">UNREGISTERED</text><text fill="#eeeeee" stroke="none" font-family="Arial" font-size="24px" font-style="normal" font-weight="normal" text-decoration="none" x="0" y="600">UNREGISTERED</text><text fill="#eeeeee" stroke="none" font-family="Arial" font-size="24px" font-style="normal" font-weight="normal" text-decoration="none" x="0" y="630">UNREGISTERED</text><text fill="#eeeeee" stroke="none" font-family="Arial" font-size="24px" font-style="normal" font-weight="normal" text-decoration="none" x="0" y="660">UNREGISTERED</text><text fill="#eeeeee" stroke="none" font-family="Arial" font-size="24px" font-style="normal" font-weight="normal" text-decoration="none" x="200" y="0">UNREGISTERED</text><text fill="#eeeeee" stroke="none" font-family="Arial" font-size="24px" font-style="normal" font-weight="normal" text-decoration="none" x="200" y="30">UNREGISTERED</text><text fill="#eeeeee" stroke="none" font-family="Arial" font-size="24px" font-style="normal" font-weight="normal" text-decoration="none" x="200" y="60">UNREGISTERED</text><text fill="#eeeeee" stroke="none" font-family="Arial" font-size="24px" font-style="normal" font-weight="normal" text-decoration="none" x="200" y="90">UNREGISTERED</text><text fill="#eeeeee" stroke="none" font-family="Arial" font-size="24px" font-style="normal" font-weight="normal" text-decoration="none" x="200" y="120">UNREGISTERED</text><text fill="#eeeeee" stroke="none" font-family="Arial" font-size="24px" font-style="normal" font-weight="normal" text-decoration="none" x="200" y="150">UNREGISTERED</text><text fill="#eeeeee" stroke="none" font-family="Arial" font-size="24px" font-style="normal" font-weight="normal" text-decoration="none" x="200" y="180">UNREGISTERED</text><text fill="#eeeeee" stroke="none" font-family="Arial" font-size="24px" font-style="normal" font-weight="normal" text-decoration="none" x="200" y="210">UNREGISTERED</text><text fill="#eeeeee" stroke="none" font-family="Arial" font-size="24px" font-style="normal" font-weight="normal" text-decoration="none" x="200" y="240">UNREGISTERED</text><text fill="#eeeeee" stroke="none" font-family="Arial" font-size="24px" font-style="normal" font-weight="normal" text-decoration="none" x="200" y="270">UNREGISTERED</text><text fill="#eeeeee" stroke="none" font-family="Arial" font-size="24px" font-style="normal" font-weight="normal" text-decoration="none" x="200" y="300">UNREGISTERED</text><text fill="#eeeeee" stroke="none" font-family="Arial" font-size="24px" font-style="normal" font-weight="normal" text-decoration="none" x="200" y="330">UNREGISTERED</text><text fill="#eeeeee" stroke="none" font-family="Arial" font-size="24px" font-style="normal" font-weight="normal" text-decoration="none" x="200" y="360">UNREGISTERED</text><text fill="#eeeeee" stroke="none" font-family="Arial" font-size="24px" font-style="normal" font-weight="normal" text-decoration="none" x="200" y="390">UNREGISTERED</text><text fill="#eeeeee" stroke="none" font-family="Arial" font-size="24px" font-style="normal" font-weight="normal" text-decoration="none" x="200" y="420">UNREGISTERED</text><text fill="#eeeeee" stroke="none" font-family="Arial" font-size="24px" font-style="normal" font-weight="normal" text-decoration="none" x="200" y="450">UNREGISTERED</text><text fill="#eeeeee" stroke="none" font-family="Arial" font-size="24px" font-style="normal" font-weight="normal" text-decoration="none" x="200" y="480">UNREGISTERED</text><text fill="#eeeeee" stroke="none" font-family="Arial" font-size="24px" font-style="normal" font-weight="normal" text-decoration="none" x="200" y="510">UNREGISTERED</text><text fill="#eeeeee" stroke="none" font-family="Arial" font-size="24px" font-style="normal" font-weight="normal" text-decoration="none" x="200" y="540">UNREGISTERED</text><text fill="#eeeeee" stroke="none" font-family="Arial" font-size="24px" font-style="normal" font-weight="normal" text-decoration="none" x="200" y="570">UNREGISTERED</text><text fill="#eeeeee" stroke="none" font-family="Arial" font-size="24px" font-style="normal" font-weight="normal" text-decoration="none" x="200" y="600">UNREGISTERED</text><text fill="#eeeeee" stroke="none" font-family="Arial" font-size="24px" font-style="normal" font-weight="normal" text-decoration="none" x="200" y="630">UNREGISTERED</text><text fill="#eeeeee" stroke="none" font-family="Arial" font-size="24px" font-style="normal" font-weight="normal" text-decoration="none" x="200" y="660">UNREGISTERED</text><text fill="#eeeeee" stroke="none" font-family="Arial" font-size="24px" font-style="normal" font-weight="normal" text-decoration="none" x="400" y="0">UNREGISTERED</text><text fill="#eeeeee" stroke="none" font-family="Arial" font-size="24px" font-style="normal" font-weight="normal" text-decoration="none" x="400" y="30">UNREGISTERED</text><text fill="#eeeeee" stroke="none" font-family="Arial" font-size="24px" font-style="normal" font-weight="normal" text-decoration="none" x="400" y="60">UNREGISTERED</text><text fill="#eeeeee" stroke="none" font-family="Arial" font-size="24px" font-style="normal" font-weight="normal" text-decoration="none" x="400" y="90">UNREGISTERED</text><text fill="#eeeeee" stroke="none" font-family="Arial" font-size="24px" font-style="normal" font-weight="normal" text-decoration="none" x="400" y="120">UNREGISTERED</text><text fill="#eeeeee" stroke="none" font-family="Arial" font-size="24px" font-style="normal" font-weight="normal" text-decoration="none" x="400" y="150">UNREGISTERED</text><text fill="#eeeeee" stroke="none" font-family="Arial" font-size="24px" font-style="normal" font-weight="normal" text-decoration="none" x="400" y="180">UNREGISTERED</text><text fill="#eeeeee" stroke="none" font-family="Arial" font-size="24px" font-style="normal" font-weight="normal" text-decoration="none" x="400" y="210">UNREGISTERED</text><text fill="#eeeeee" stroke="none" font-family="Arial" font-size="24px" font-style="normal" font-weight="normal" text-decoration="none" x="400" y="240">UNREGISTERED</text><text fill="#eeeeee" stroke="none" font-family="Arial" font-size="24px" font-style="normal" font-weight="normal" text-decoration="none" x="400" y="270">UNREGISTERED</text><text fill="#eeeeee" stroke="none" font-family="Arial" font-size="24px" font-style="normal" font-weight="normal" text-decoration="none" x="400" y="300">UNREGISTERED</text><text fill="#eeeeee" stroke="none" font-family="Arial" font-size="24px" font-style="normal" font-weight="normal" text-decoration="none" x="400" y="330">UNREGISTERED</text><text fill="#eeeeee" stroke="none" font-family="Arial" font-size="24px" font-style="normal" font-weight="normal" text-decoration="none" x="400" y="360">UNREGISTERED</text><text fill="#eeeeee" stroke="none" font-family="Arial" font-size="24px" font-style="normal" font-weight="normal" text-decoration="none" x="400" y="390">UNREGISTERED</text><text fill="#eeeeee" stroke="none" font-family="Arial" font-size="24px" font-style="normal" font-weight="normal" text-decoration="none" x="400" y="420">UNREGISTERED</text><text fill="#eeeeee" stroke="none" font-family="Arial" font-size="24px" font-style="normal" font-weight="normal" text-decoration="none" x="400" y="450">UNREGISTERED</text><text fill="#eeeeee" stroke="none" font-family="Arial" font-size="24px" font-style="normal" font-weight="normal" text-decoration="none" x="400" y="480">UNREGISTERED</text><text fill="#eeeeee" stroke="none" font-family="Arial" font-size="24px" font-style="normal" font-weight="normal" text-decoration="none" x="400" y="510">UNREGISTERED</text><text fill="#eeeeee" stroke="none" font-family="Arial" font-size="24px" font-style="normal" font-weight="normal" text-decoration="none" x="400" y="540">UNREGISTERED</text><text fill="#eeeeee" stroke="none" font-family="Arial" font-size="24px" font-style="normal" font-weight="normal" text-decoration="none" x="400" y="570">UNREGISTERED</text><text fill="#eeeeee" stroke="none" font-family="Arial" font-size="24px" font-style="normal" font-weight="normal" text-decoration="none" x="400" y="600">UNREGISTERED</text><text fill="#eeeeee" stroke="none" font-family="Arial" font-size="24px" font-style="normal" font-weight="normal" text-decoration="none" x="400" y="630">UNREGISTERED</text><text fill="#eeeeee" stroke="none" font-family="Arial" font-size="24px" font-style="normal" font-weight="normal" text-decoration="none" x="400" y="660">UNREGISTERED</text><text fill="#eeeeee" stroke="none" font-family="Arial" font-size="24px" font-style="normal" font-weight="normal" text-decoration="none" x="600" y="0">UNREGISTERED</text><text fill="#eeeeee" stroke="none" font-family="Arial" font-size="24px" font-style="normal" font-weight="normal" text-decoration="none" x="600" y="30">UNREGISTERED</text><text fill="#eeeeee" stroke="none" font-family="Arial" font-size="24px" font-style="normal" font-weight="normal" text-decoration="none" x="600" y="60">UNREGISTERED</text><text fill="#eeeeee" stroke="none" font-family="Arial" font-size="24px" font-style="normal" font-weight="normal" text-decoration="none" x="600" y="90">UNREGISTERED</text><text fill="#eeeeee" stroke="none" font-family="Arial" font-size="24px" font-style="normal" font-weight="normal" text-decoration="none" x="600" y="120">UNREGISTERED</text><text fill="#eeeeee" stroke="none" font-family="Arial" font-size="24px" font-style="normal" font-weight="normal" text-decoration="none" x="600" y="150">UNREGISTERED</text><text fill="#eeeeee" stroke="none" font-family="Arial" font-size="24px" font-style="normal" font-weight="normal" text-decoration="none" x="600" y="180">UNREGISTERED</text><text fill="#eeeeee" stroke="none" font-family="Arial" font-size="24px" font-style="normal" font-weight="normal" text-decoration="none" x="600" y="210">UNREGISTERED</text><text fill="#eeeeee" stroke="none" font-family="Arial" font-size="24px" font-style="normal" font-weight="normal" text-decoration="none" x="600" y="240">UNREGISTERED</text><text fill="#eeeeee" stroke="none" font-family="Arial" font-size="24px" font-style="normal" font-weight="normal" text-decoration="none" x="600" y="270">UNREGISTERED</text><text fill="#eeeeee" stroke="none" font-family="Arial" font-size="24px" font-style="normal" font-weight="normal" text-decoration="none" x="600" y="300">UNREGISTERED</text><text fill="#eeeeee" stroke="none" font-family="Arial" font-size="24px" font-style="normal" font-weight="normal" text-decoration="none" x="600" y="330">UNREGISTERED</text><text fill="#eeeeee" stroke="none" font-family="Arial" font-size="24px" font-style="normal" font-weight="normal" text-decoration="none" x="600" y="360">UNREGISTERED</text><text fill="#eeeeee" stroke="none" font-family="Arial" font-size="24px" font-style="normal" font-weight="normal" text-decoration="none" x="600" y="390">UNREGISTERED</text><text fill="#eeeeee" stroke="none" font-family="Arial" font-size="24px" font-style="normal" font-weight="normal" text-decoration="none" x="600" y="420">UNREGISTERED</text><text fill="#eeeeee" stroke="none" font-family="Arial" font-size="24px" font-style="normal" font-weight="normal" text-decoration="none" x="600" y="450">UNREGISTERED</text><text fill="#eeeeee" stroke="none" font-family="Arial" font-size="24px" font-style="normal" font-weight="normal" text-decoration="none" x="600" y="480">UNREGISTERED</text><text fill="#eeeeee" stroke="none" font-family="Arial" font-size="24px" font-style="normal" font-weight="normal" text-decoration="none" x="600" y="510">UNREGISTERED</text><text fill="#eeeeee" stroke="none" font-family="Arial" font-size="24px" font-style="normal" font-weight="normal" text-decoration="none" x="600" y="540">UNREGISTERED</text><text fill="#eeeeee" stroke="none" font-family="Arial" font-size="24px" font-style="normal" font-weight="normal" text-decoration="none" x="600" y="570">UNREGISTERED</text><text fill="#eeeeee" stroke="none" font-family="Arial" font-size="24px" font-style="normal" font-weight="normal" text-decoration="none" x="600" y="600">UNREGISTERED</text><text fill="#eeeeee" stroke="none" font-family="Arial" font-size="24px" font-style="normal" font-weight="normal" text-decoration="none" x="600" y="630">UNREGISTERED</text><text fill="#eeeeee" stroke="none" font-family="Arial" font-size="24px" font-style="normal" font-weight="normal" text-decoration="none" x="600" y="660">UNREGISTERED</text><g transform="translate(-70,-166) scale(1,1)"><rect fill="#C0C0C0" stroke="none" x="87" y="463" width="72" height="72" opacity="0.2"/></g><g transform="translate(-70,-166) scale(1,1)"><rect fill="#ffffff" stroke="none" x="80" y="456" width="72" height="72"/></g><g transform="translate(-70,-166) scale(1,1)"><path fill="none" stroke="#000000" d="M 80 456 L 152 456 L 152 528 L 80 528 L 80 456 Z Z" stroke-miterlimit="10"/></g><g transform="translate(-70,-166) scale(1,1)"><path fill="none" stroke="#000000" d="M 80 481 L 152 481" stroke-miterlimit="10"/></g><g transform="translate(-70,-166) scale(1,1)"><path fill="none" stroke="#000000" d="M 80 519 L 152 519" stroke-miterlimit="10"/></g><g transform="translate(-70,-166) scale(1,1)"><g><path fill="none" stroke="none"/><text fill="#000000" stroke="none" font-family="Arial" font-size="13px" font-style="normal" font-weight="bold" text-decoration="none" x="102.2763671875" y="475.5">User</text></g></g><g transform="translate(-70,-166) scale(1,1)"><g><path fill="none" stroke="none"/><text fill="#000000" stroke="none" font-family="Arial" font-size="13px" font-style="normal" font-weight="normal" text-decoration="none" x="85" y="498.5">-ID</text></g></g><g transform="translate(-70,-166) scale(1,1)"><g><path fill="none" stroke="none"/><text fill="#000000" stroke="none" font-family="Arial" font-size="13px" font-style="normal" font-weight="normal" text-decoration="none" x="85" y="513.5">-Name</text></g></g><g transform="translate(-70,-166) scale(1,1)"><rect fill="#C0C0C0" stroke="none" x="647" y="455" width="72.2353515625" height="72" opacity="0.2"/></g><g transform="translate(-70,-166) scale(1,1)"><rect fill="#ffffff" stroke="none" x="640" y="448" width="72.2353515625" height="72"/></g><g transform="translate(-70,-166) scale(1,1)"><path fill="none" stroke="#000000" d="M 640 448 L 712.2353515625 448 L 712.2353515625 520 L 640 520 L 640 448 Z Z" stroke-miterlimit="10"/></g><g transform="translate(-70,-166) scale(1,1)"><path fill="none" stroke="#000000" d="M 640 473 L 712.2353515625 473" stroke-miterlimit="10"/></g><g transform="translate(-70,-166) scale(1,1)"><path fill="none" stroke="#000000" d="M 640 496 L 712.2353515625 496" stroke-miterlimit="10"/></g><g transform="translate(-70,-166) scale(1,1)"><g><path fill="none" stroke="none"/><text fill="#000000" stroke="none" font-family="Arial" font-size="13px" font-style="normal" font-weight="bold" text-decoration="none" x="655.8876953125" y="467.5">Project</text></g></g><g transform="translate(-70,-166) scale(1,1)"><g><path fill="none" stroke="none"/><text fill="#000000" stroke="none" font-family="Arial" font-size="13px" font-style="normal" font-weight="normal" text-decoration="none" x="645" y="490.5">+Name</text></g></g><g transform="translate(-70,-166) scale(1,1)"><rect fill="#C0C0C0" stroke="none" x="367" y="735" width="89.76123046875" height="117" opacity="0.2"/></g><g transform="translate(-70,-166) scale(1,1)"><rect fill="#ffffff" stroke="none" x="360" y="728" width="89.76123046875" height="117"/></g><g transform="translate(-70,-166) scale(1,1)"><path fill="none" stroke="#000000" d="M 360 728 L 449.76123046875 728 L 449.76123046875 845 L 360 845 L 360 728 Z Z" stroke-miterlimit="10"/></g><g transform="translate(-70,-166) scale(1,1)"><path fill="none" stroke="#000000" d="M 360 753 L 449.76123046875 753" stroke-miterlimit="10"/></g><g transform="translate(-70,-166) scale(1,1)"><path fill="none" stroke="#000000" d="M 360 836 L 449.76123046875 836" stroke-miterlimit="10"/></g><g transform="translate(-70,-166) scale(1,1)"><g><path fill="none" stroke="none"/><text fill="#000000" stroke="none" font-family="Arial" font-size="13px" font-style="normal" font-weight="bold" text-decoration="none" x="391.515625" y="747.5">Task</text></g></g><g transform="translate(-70,-166) scale(1,1)"><g><path fill="none" stroke="none"/><text fill="#000000" stroke="none" font-family="Arial" font-size="13px" font-style="normal" font-weight="normal" text-decoration="none" x="365" y="770.5">+Name</text></g></g><g transform="translate(-70,-166) scale(1,1)"><g><path fill="none" stroke="none"/><text fill="#000000" stroke="none" font-family="Arial" font-size="13px" font-style="normal" font-weight="normal" text-decoration="none" x="365" y="785.5">+Description</text></g></g><g transform="translate(-70,-166) scale(1,1)"><g><path fill="none" stroke="none"/><text fill="#000000" stroke="none" font-family="Arial" font-size="13px" font-style="normal" font-weight="normal" text-decoration="none" x="365" y="800.5">+StartTime</text></g></g><g transform="translate(-70,-166) scale(1,1)"><g><path fill="none" stroke="none"/><text fill="#000000" stroke="none" font-family="Arial" font-size="13px" font-style="normal" font-weight="normal" text-decoration="none" x="365" y="815.5">+DueTime</text></g></g><g transform="translate(-70,-166) scale(1,1)"><g><path fill="none" stroke="none"/><text fill="#000000" stroke="none" font-family="Arial" font-size="13px" font-style="normal" font-weight="normal" text-decoration="none" x="365" y="830.5">+IsFinished</text></g></g><g transform="translate(-70,-166) scale(1,1)"><rect fill="#C0C0C0" stroke="none" x="351" y="183" width="121.33447265625" height="222" opacity="0.2"/></g><g transform="translate(-70,-166) scale(1,1)"><rect fill="#ffffff" stroke="none" x="344" y="176" width="121.33447265625" height="222"/></g><g transform="translate(-70,-166) scale(1,1)"><path fill="none" stroke="#000000" d="M 344 176 L 465.33447265625 176 L 465.33447265625 398 L 344 398 L 344 176 Z Z" stroke-miterlimit="10"/></g><g transform="translate(-70,-166) scale(1,1)"><path fill="none" stroke="#000000" d="M 344 201 L 465.33447265625 201" stroke-miterlimit="10"/></g><g transform="translate(-70,-166) scale(1,1)"><path fill="none" stroke="#000000" d="M 344 211 L 465.33447265625 211" stroke-miterlimit="10"/></g><g transform="translate(-70,-166) scale(1,1)"><g><path fill="none" stroke="none"/><text fill="#000000" stroke="none" font-family="Arial" font-size="13px" font-style="normal" font-weight="bold" text-decoration="none" x="368.898193359375" y="195.5">SuperAdmin</text></g></g><g transform="translate(-70,-166) scale(1,1)"><g><path fill="none" stroke="none"/><text fill="#000000" stroke="none" font-family="Arial" font-size="13px" font-style="normal" font-weight="normal" text-decoration="none" x="349" y="228.5">+CreateProject()</text></g></g><g transform="translate(-70,-166) scale(1,1)"><g><path fill="none" stroke="none"/><text fill="#000000" stroke="none" font-family="Arial" font-size="13px" font-style="normal" font-weight="normal" text-decoration="none" x="349" y="243.5">+DeleteProject()</text></g></g><g transform="translate(-70,-166) scale(1,1)"><g><path fill="none" stroke="none"/><text fill="#000000" stroke="none" font-family="Arial" font-size="13px" font-style="normal" font-weight="normal" text-decoration="none" x="349" y="258.5">+TransferProject()</text></g></g><g transform="translate(-70,-166) scale(1,1)"><g><path fill="none" stroke="none"/><text fill="#000000" stroke="none" font-family="Arial" font-size="13px" font-style="normal" font-weight="normal" text-decoration="none" x="349" y="273.5">+SetAdmin()</text></g></g><g transform="translate(-70,-166) scale(1,1)"><g><path fill="none" stroke="none"/><text fill="#000000" stroke="none" font-family="Arial" font-size="13px" font-style="normal" font-weight="normal" text-decoration="none" x="349" y="288.5">+AcceptMember()</text></g></g><g transform="translate(-70,-166) scale(1,1)"><g><path fill="none" stroke="none"/><text fill="#000000" stroke="none" font-family="Arial" font-size="13px" font-style="normal" font-weight="normal" text-decoration="none" x="349" y="303.5">+RemoveMember()</text></g></g><g transform="translate(-70,-166) scale(1,1)"><g><path fill="none" stroke="none"/><text fill="#000000" stroke="none" font-family="Arial" font-size="13px" font-style="normal" font-weight="normal" text-decoration="none" x="349" y="318.5">+CreateTask()</text></g></g><g transform="translate(-70,-166) scale(1,1)"><g><path fill="none" stroke="none"/><text fill="#000000" stroke="none" font-family="Arial" font-size="13px" font-style="normal" font-weight="normal" text-decoration="none" x="349" y="333.5">+DeleteTask()</text></g></g><g transform="translate(-70,-166) scale(1,1)"><g><path fill="none" stroke="none"/><text fill="#000000" stroke="none" font-family="Arial" font-size="13px" font-style="normal" font-weight="normal" text-decoration="none" x="349" y="348.5">+AssignExecutor()</text></g></g><g transform="translate(-70,-166) scale(1,1)"><g><path fill="none" stroke="none"/><text fill="#000000" stroke="none" font-family="Arial" font-size="13px" font-style="normal" font-weight="normal" text-decoration="none" x="349" y="363.5">+ComleteTask()</text></g></g><g transform="translate(-70,-166) scale(1,1)"><g><path fill="none" stroke="none"/><text fill="#000000" stroke="none" font-family="Arial" font-size="13px" font-style="normal" font-weight="normal" text-decoration="none" x="349" y="378.5">+ViewTask()</text></g></g><g transform="translate(-70,-166) scale(1,1)"><g><path fill="none" stroke="none"/><text fill="#000000" stroke="none" font-family="Arial" font-size="13px" font-style="normal" font-weight="normal" text-decoration="none" x="349" y="393.5">+ViewDiagram()</text></g></g><g transform="translate(-70,-166) scale(1,1)"><rect fill="#C0C0C0" stroke="none" x="351" y="423" width="121.33447265625" height="162" opacity="0.2"/></g><g transform="translate(-70,-166) scale(1,1)"><rect fill="#ffffff" stroke="none" x="344" y="416" width="121.33447265625" height="162"/></g><g transform="translate(-70,-166) scale(1,1)"><path fill="none" stroke="#000000" d="M 344 416 L 465.33447265625 416 L 465.33447265625 578 L 344 578 L 344 416 Z Z" stroke-miterlimit="10"/></g><g transform="translate(-70,-166) scale(1,1)"><path fill="none" stroke="#000000" d="M 344 441 L 465.33447265625 441" stroke-miterlimit="10"/></g><g transform="translate(-70,-166) scale(1,1)"><path fill="none" stroke="#000000" d="M 344 451 L 465.33447265625 451" stroke-miterlimit="10"/></g><g transform="translate(-70,-166) scale(1,1)"><g><path fill="none" stroke="none"/><text fill="#000000" stroke="none" font-family="Arial" font-size="13px" font-style="normal" font-weight="bold" text-decoration="none" x="386.2431640625" y="435.5">Admin</text></g></g><g transform="translate(-70,-166) scale(1,1)"><g><path fill="none" stroke="none"/><text fill="#000000" stroke="none" font-family="Arial" font-size="13px" font-style="normal" font-weight="normal" text-decoration="none" x="349" y="468.5">+AddMember()</text></g></g><g transform="translate(-70,-166) scale(1,1)"><g><path fill="none" stroke="none"/><text fill="#000000" stroke="none" font-family="Arial" font-size="13px" font-style="normal" font-weight="normal" text-decoration="none" x="349" y="483.5">+RemoveMember()</text></g></g><g transform="translate(-70,-166) scale(1,1)"><g><path fill="none" stroke="none"/><text fill="#000000" stroke="none" font-family="Arial" font-size="13px" font-style="normal" font-weight="normal" text-decoration="none" x="349" y="498.5">+CreateTask()</text></g></g><g transform="translate(-70,-166) scale(1,1)"><g><path fill="none" stroke="none"/><text fill="#000000" stroke="none" font-family="Arial" font-size="13px" font-style="normal" font-weight="normal" text-decoration="none" x="349" y="513.5">+DeleteTask()</text></g></g><g transform="translate(-70,-166) scale(1,1)"><g><path fill="none" stroke="none"/><text fill="#000000" stroke="none" font-family="Arial" font-size="13px" font-style="normal" font-weight="normal" text-decoration="none" x="349" y="528.5">+AssignExecutor()</text></g></g><g transform="translate(-70,-166) scale(1,1)"><g><path fill="none" stroke="none"/><text fill="#000000" stroke="none" font-family="Arial" font-size="13px" font-style="normal" font-weight="normal" text-decoration="none" x="349" y="543.5">+CompleteTask()</text></g></g><g transform="translate(-70,-166) scale(1,1)"><g><path fill="none" stroke="none"/><text fill="#000000" stroke="none" font-family="Arial" font-size="13px" font-style="normal" font-weight="normal" text-decoration="none" x="349" y="558.5">+ViewTask()</text></g></g><g transform="translate(-70,-166) scale(1,1)"><g><path fill="none" stroke="none"/><text fill="#000000" stroke="none" font-family="Arial" font-size="13px" font-style="normal" font-weight="normal" text-decoration="none" x="349" y="573.5">+ViewDiagram()</text></g></g><g transform="translate(-70,-166) scale(1,1)"><rect fill="#C0C0C0" stroke="none" x="359" y="615" width="107.6171875" height="87" opacity="0.2"/></g><g transform="translate(-70,-166) scale(1,1)"><rect fill="#ffffff" stroke="none" x="352" y="608" width="107.6171875" height="87"/></g><g transform="translate(-70,-166) scale(1,1)"><path fill="none" stroke="#000000" d="M 352 608 L 459.6171875 608 L 459.6171875 695 L 352 695 L 352 608 Z Z" stroke-miterlimit="10"/></g><g transform="translate(-70,-166) scale(1,1)"><path fill="none" stroke="#000000" d="M 352 633 L 459.6171875 633" stroke-miterlimit="10"/></g><g transform="translate(-70,-166) scale(1,1)"><path fill="none" stroke="#000000" d="M 352 643 L 459.6171875 643" stroke-miterlimit="10"/></g><g transform="translate(-70,-166) scale(1,1)"><g><path fill="none" stroke="none"/><text fill="#000000" stroke="none" font-family="Arial" font-size="13px" font-style="normal" font-weight="bold" text-decoration="none" x="381.969970703125" y="627.5">Member</text></g></g><g transform="translate(-70,-166) scale(1,1)"><g><path fill="none" stroke="none"/><text fill="#000000" stroke="none" font-family="Arial" font-size="13px" font-style="normal" font-weight="normal" text-decoration="none" x="357" y="660.5">+CompleteTask()</text></g></g><g transform="translate(-70,-166) scale(1,1)"><g><path fill="none" stroke="none"/><text fill="#000000" stroke="none" font-family="Arial" font-size="13px" font-style="normal" font-weight="normal" text-decoration="none" x="357" y="675.5">+ViewTask()</text></g></g><g transform="translate(-70,-166) scale(1,1)"><g><path fill="none" stroke="none"/><text fill="#000000" stroke="none" font-family="Arial" font-size="13px" font-style="normal" font-weight="normal" text-decoration="none" x="357" y="690.5">+ViewDiagram()</text></g></g><g transform="translate(-70,-166) scale(1,1)"><path fill="none" stroke="#000000" d="M 343 330 L 153 466" stroke-miterlimit="10"/></g><g transform="translate(-70,-166) scale(1,1)"><path fill="#FFFFFF" stroke="none" d="M 164.6273747661868 447.32370068652136 L 153 466 L 174.42793343659844 461.01565765253764"/></g><g transform="translate(-70,-166) scale(1,1)"><path fill="none" stroke="#000000" d="M 164.6273747661868 447.32370068652136 L 153 466 L 174.42793343659844 461.01565765253764 L 164.6273747661868 447.32370068652136" stroke-miterlimit="10"/></g><g transform="translate(-70,-166) scale(1,1)"><path fill="none" stroke="#000000" d="M 343 496 L 153 493" stroke-miterlimit="10"/></g><g transform="translate(-70,-166) scale(1,1)"><path fill="#FFFFFF" stroke="none" d="M 173.45573213031187 484.902900333272 L 153 493 L 173.18990098576575 501.7388728211924"/></g><g transform="translate(-70,-166) scale(1,1)"><path fill="none" stroke="#000000" d="M 173.45573213031187 484.902900333272 L 153 493 L 173.18990098576575 501.7388728211924 L 173.45573213031187 484.902900333272" stroke-miterlimit="10"/></g><g transform="translate(-70,-166) scale(1,1)"><path fill="none" stroke="#000000" d="M 351 621 L 153 512" stroke-miterlimit="10"/></g><g transform="translate(-70,-166) scale(1,1)"><path fill="#FFFFFF" stroke="none" d="M 174.86574669777076 514.426751192217 L 153 512 L 166.74544554143188 529.1773899899703"/></g><g transform="translate(-70,-166) scale(1,1)"><path fill="none" stroke="#000000" d="M 174.86574669777076 514.426751192217 L 153 512 L 166.74544554143188 529.1773899899703 L 174.86574669777076 514.426751192217" stroke-miterlimit="10"/></g><g transform="translate(-70,-166) scale(1,1)"><path fill="none" stroke="#000000" d="M 451 734 L 643 521" stroke-miterlimit="10"/></g><g transform="translate(-70,-166) scale(1,1)"><path fill="#000000" stroke="none" d="M 639.3223762928355 531.3670190444748 L 643 521 L 633.0689378709734 525.7301168050498 L 628.2700645946773 537.3410220902799"/></g><g transform="translate(-70,-166) scale(1,1)"><path fill="none" stroke="#000000" d="M 639.3223762928355 531.3670190444748 L 643 521 L 633.0689378709734 525.7301168050498 L 628.2700645946773 537.3410220902799 L 639.3223762928355 531.3670190444748" stroke-miterlimit="10"/></g><g transform="translate(-70,-166) scale(1,1)"><g><path fill="none" stroke="none"/><text fill="#000000" stroke="none" font-family="Arial" font-size="13px" font-style="normal" font-weight="normal" text-decoration="none" x="461.604736328125" y="742.5">0..n</text></g></g><g transform="translate(-70,-166) scale(1,1)"><g><path fill="none" stroke="none"/><text fill="#000000" stroke="none" font-family="Arial" font-size="13px" font-style="normal" font-weight="normal" text-decoration="none" x="620.69677734375" y="563.5">1</text></g></g><g transform="translate(-70,-166) scale(1,1)"><path fill="none" stroke="#000000" d="M 466 494 L 639 486" stroke-miterlimit="10"/></g><g transform="translate(-70,-166) scale(1,1)"><g><path fill="none" stroke="none"/><text fill="#000000" stroke="none" font-family="Arial" font-size="13px" font-style="normal" font-weight="normal" text-decoration="none" x="523.423095703125" y="481.5">+Manage</text></g></g><g transform="translate(-70,-166) scale(1,1)"><g><path fill="none" stroke="none"/><text fill="#000000" stroke="none" font-family="Arial" font-size="13px" font-style="normal" font-weight="normal" text-decoration="none" x="477.604736328125" y="511.5">0..n</text></g></g><g transform="translate(-70,-166) scale(1,1)"><g><path fill="none" stroke="none"/><text fill="#000000" stroke="none" font-family="Arial" font-size="13px" font-style="normal" font-weight="normal" text-decoration="none" x="606.604736328125" y="505.5">0..n</text></g></g><g transform="translate(-70,-166) scale(1,1)"><path fill="none" stroke="#000000" d="M 639 457 L 466 332" stroke-miterlimit="10"/></g><g transform="translate(-70,-166) scale(1,1)"><g><path fill="none" stroke="none"/><text fill="#000000" stroke="none" font-family="Arial" font-size="13px" font-style="normal" font-weight="normal" text-decoration="none" x="525.5947265625" y="412.5">+Own</text></g></g><g transform="translate(-70,-166) scale(1,1)"><g><path fill="none" stroke="none"/><text fill="#000000" stroke="none" font-family="Arial" font-size="13px" font-style="normal" font-weight="normal" text-decoration="none" x="617.604736328125" y="440.5">1..n</text></g></g><g transform="translate(-70,-166) scale(1,1)"><g><path fill="none" stroke="none"/><text fill="#000000" stroke="none" font-family="Arial" font-size="13px" font-style="normal" font-weight="normal" text-decoration="none" x="486.69677734375" y="340.5">1</text></g></g><g transform="translate(-70,-166) scale(1,1)"><path fill="none" stroke="#000000" d="M 359 740 L 152 529" stroke-miterlimit="10"/></g><g transform="translate(-70,-166) scale(1,1)"><g><path fill="none" stroke="none"/><text fill="#000000" stroke="none" font-family="Arial" font-size="13px" font-style="normal" font-weight="normal" text-decoration="none" x="212.464599609375" y="655.5">+Assigned</text></g></g><g transform="translate(-70,-166) scale(1,1)"><g><path fill="none" stroke="none"/><text fill="#000000" stroke="none" font-family="Arial" font-size="13px" font-style="normal" font-weight="normal" text-decoration="none" x="326.604736328125" y="746.5">0..n</text></g></g><g transform="translate(-70,-166) scale(1,1)"><g><path fill="none" stroke="none"/><text fill="#000000" stroke="none" font-family="Arial" font-size="13px" font-style="normal" font-weight="normal" text-decoration="none" x="150.69677734375" y="556.5">1</text></g></g><g transform="translate(-70,-166) scale(1,1)"><path fill="none" stroke="#000000" d="M 461 617 L 639 507" stroke-miterlimit="10"/></g><g transform="translate(-70,-166) scale(1,1)"><g><path fill="none" stroke="none"/><text fill="#000000" stroke="none" font-family="Arial" font-size="13px" font-style="normal" font-weight="normal" text-decoration="none" x="507.861083984375" y="555.5">+Participate</text></g></g><g transform="translate(-70,-166) scale(1,1)"><g><path fill="none" stroke="none"/><text fill="#000000" stroke="none" font-family="Arial" font-size="13px" font-style="normal" font-weight="normal" text-decoration="none" x="474.604736328125" y="622.5">0..n</text></g></g><g transform="translate(-70,-166) scale(1,1)"><g><path fill="none" stroke="none"/><text fill="#000000" stroke="none" font-family="Arial" font-size="13px" font-style="normal" font-weight="normal" text-decoration="none" x="591.604736328125" y="548.5">0..n</text></g></g></g></svg>